# https://github.com/mikedh/trimesh

o servos_rr_1.stl
v -103.54102325 -38.07996750 4.54918623
v -103.20547485 -30.65396881 8.38453579
v -103.54102325 -29.15347099 4.54918623
v -103.20547485 -29.15396881 8.38453579
v -102.81327820 -29.15396881 12.86741161
v -102.81327820 -30.65396881 12.86741161
v -102.47772217 -38.07996750 16.70276070
v -102.47772217 -29.15347099 16.70276070
v -89.08168793 -46.57996750 6.96082926
v -88.53917694 -46.57996750 7.09896994
v -89.64134216 -46.57996750 6.94687271
v -88.04100800 -46.57996750 7.35436678
v -87.61215973 -46.57996750 7.71421337
v -87.27413940 -46.57996750 8.16046619
v -87.04389191 -46.57996750 8.67074776
v -86.93296051 -46.57996750 9.21947002
v -89.20555878 -46.57996750 11.92784595
v -86.94692230 -46.57996750 9.77911854
v -87.08506012 -46.57996750 10.32162952
v -87.34045410 -46.57996750 10.81979942
v -87.70030212 -46.57996750 11.24864864
v -88.14655304 -46.57996750 11.58667183
v -88.65683746 -46.57996750 11.81691933
v -91.17169952 -46.57996750 12.09986115
v -91.60748291 -46.57996750 7.11888790
v -94.44210052 -46.57996750 9.87643433
v -94.55947876 -46.57996750 9.30796242
v -91.53914642 -46.57996750 12.94402790
v -94.88470459 -46.57996750 11.52826500
v -94.60922241 -46.57996750 11.01733971
v -94.45898438 -46.57996750 10.45665359
v -95.27059937 -46.57996750 11.96188641
v -92.02945709 -46.57996750 13.72327805
v -92.63145447 -46.57996750 14.41986275
v -95.74608612 -46.57996750 12.29482746
v -93.33143616 -46.57996750 15.01791191
v -96.28553772 -46.57996750 12.50913811
v -94.11344910 -46.57996750 15.50380325
v -94.95968628 -46.57996750 15.86646748
v -95.85086060 -46.57996750 16.09764481
v -96.85987854 -46.57996750 12.59326649
v -96.76667023 -46.57996750 16.19206619
v -97.68627167 -46.57996750 16.14758492
v -98.58869171 -46.57996750 15.96521091
v -97.43813324 -46.57996750 12.54267502
v -99.45339966 -46.57996750 15.64909935
v -100.26067352 -46.57996750 15.20645142
v -97.98913574 -46.57996750 12.36009312
v -100.99214172 -46.57996750 14.64735031
v -98.48317719 -46.57996750 12.05536270
v -101.63112640 -46.57996750 13.98453236
v -102.16308594 -46.57996750 13.23309708
v -98.89363098 -46.57996750 11.64491272
v -102.57589722 -46.57996750 12.41016102
v -99.19835663 -46.57996750 11.15086937
v -102.86014557 -46.57996750 11.53447056
v -99.38094330 -46.57996750 10.59986782
v -103.00937653 -46.57996750 10.62597370
v -99.43153381 -46.57996750 10.02161217
v -103.02017212 -46.57996750 9.70536709
v -99.34740448 -46.57996750 9.44727612
v -102.89230347 -46.57996750 8.79362011
v -99.13309479 -46.57996750 8.90782261
v -102.62866211 -46.57996750 7.91150236
v -98.80014801 -46.57996750 8.43233395
v -102.23527527 -46.57996750 7.07910919
v -101.72109222 -46.57996750 6.31540203
v -98.36653137 -46.57996750 8.04644394
v -101.09782410 -46.57996750 5.63777781
v -97.85560608 -46.57996750 7.77095509
v -100.37967682 -46.57996750 5.06167221
v -99.58300018 -46.57996750 4.60020924
v -97.29491425 -46.57996750 7.62071991
v -98.72595978 -46.57996750 4.26390123
v -97.82805634 -46.57996750 4.06040812
v -96.90975952 -46.57996750 3.99436665
v -96.71469879 -46.57996750 7.60383701
v -95.99198151 -46.57996750 4.06728029
v -95.09562683 -46.57996750 4.27748871
v -94.24111938 -46.57996750 4.62020350
v -96.14622498 -46.57996750 7.72121716
v -93.44792175 -46.57996750 5.08761692
v -95.62014771 -46.57996750 7.96653223
v -92.73410797 -46.57996750 5.66908169
v -92.11593628 -46.57996750 6.35135269
v -95.16481781 -46.57996750 8.32655716
v -94.80479431 -46.57996750 8.78188229
v -96.09808350 -46.57996750 10.35744190
v -97.70872498 -46.57996750 10.49835396
v -96.06092072 -46.57996750 10.01806259
v -97.80426025 -46.57996750 10.17058563
v -96.15645599 -46.57996750 9.69029427
v -97.76708984 -46.57996750 9.83120632
v -96.37014771 -46.57996750 9.42403507
v -97.60287476 -46.57996750 9.53188515
v -96.66947174 -46.57996750 9.25982189
v -97.33661652 -46.57996750 9.31818962
v -97.00885010 -46.57996750 9.22265339
v -97.49502563 -46.57996750 10.76461315
v -96.26229858 -46.57996750 10.65676308
v -97.19570923 -46.57996750 10.92882633
v -96.52855682 -46.57996750 10.87045860
v -96.85632324 -46.57996750 10.96599388
v -74.68009949 -39.57996750 9.15130329
v -76.67249298 -39.57996750 9.32561493
v -74.68009949 -38.07996750 9.15130329
v -76.67249298 -38.07996750 9.32561493
v -76.84680176 -39.57996750 7.33322525
v -74.85440826 -39.57996750 7.15891409
v -76.84680176 -38.07996750 7.33322525
v -74.85440826 -38.07996750 7.15891409
v -105.23834991 -38.07996750 9.81716442
v -107.23073578 -38.07996750 9.99147606
v -105.23834991 -39.57996750 9.81716442
v -107.23073578 -39.57996750 9.99147606
v -105.06404114 -39.57996750 11.80955315
v -107.05642700 -39.57996750 11.98386478
v -105.06404114 -38.07996750 11.80955315
v -107.05642700 -38.07996750 11.98386478
v -74.23560333 -39.57996750 14.23189640
v -78.36981201 -39.57996750 14.59359264
v -77.01846313 -39.57996750 9.29534626
v -77.33322144 -39.57996750 9.14857197
v -77.57879639 -39.57996750 8.90299702
v -77.72557068 -39.57996750 8.58823872
v -79.43311310 -39.57996750 2.44001722
v -77.75583649 -39.57996750 8.24226475
v -77.66595459 -39.57996750 7.90680170
v -77.46675110 -39.57996750 7.62231350
v -77.18226624 -39.57996750 7.42311239
v -75.29890442 -39.57996750 2.07832098
v -75.29890442 -38.07996750 2.07832098
v -106.61193085 -38.07996750 17.06445885
v -106.61193085 -39.57996750 17.06445885
v -107.67523193 -39.57996750 4.91088247
v -103.54102325 -39.57996750 4.54918623
v -104.89237213 -39.57996750 9.84743309
v -104.57762146 -39.57996750 9.99420643
v -104.33203888 -39.57996750 10.23978233
v -104.18527222 -39.57996750 10.55453968
v -104.15499878 -39.57996750 10.90051460
v -102.47772217 -39.57996750 16.70276070
v -104.24488831 -39.57996750 11.23597717
v -104.44408417 -39.57996750 11.52046585
v -104.72857666 -39.57996750 11.71966648
v -107.67523193 -38.07996750 4.91088247
v -104.89237213 -38.07996750 9.84743309
v -104.57762146 -38.07996750 9.99420643
v -104.33203888 -38.07996750 10.23978233
v -104.18527222 -38.07996750 10.55453968
v -104.15499878 -38.07996750 10.90051460
v -104.24488831 -38.07996750 11.23597717
v -104.44408417 -38.07996750 11.52046585
v -104.72857666 -38.07996750 11.71966648
v -89.20555878 -43.07996750 11.92784595
v -91.17169952 -43.07996750 12.09986115
v -96.58934784 -43.07996750 4.00398874
v -97.46424103 -43.07996750 4.01753616
v -98.32364655 -43.07996750 4.15505075
v -99.15473175 -43.07996750 4.41347218
v -99.94058228 -43.07996750 4.78753901
v -100.66519928 -43.07996750 5.26963663
v -101.31383514 -43.07996750 5.84995079
v -101.87327576 -43.07996750 6.51666880
v -102.33213806 -43.07996750 7.25621700
v -102.68108368 -43.07996750 8.05354118
v -102.91300964 -43.07996750 8.89240932
v -103.02318573 -43.07996750 9.75574589
v -103.00937653 -43.07996750 10.62597370
v -102.87186432 -43.07996750 11.48537922
v -102.61344147 -43.07996750 12.31646729
v -102.23937225 -43.07996750 13.10231876
v -101.75727844 -43.07996750 13.82693577
v -101.17696381 -43.07996750 14.47556782
v -100.51024628 -43.07996750 15.03501034
v -99.77069855 -43.07996750 15.49387455
v -98.97337341 -43.07996750 15.84282017
v -98.13450623 -43.07996750 16.07474136
v -97.27116394 -43.07996750 16.18492126
v -96.40093994 -43.07996750 16.17111206
v -95.53698730 -43.07996750 16.03252983
v -94.70175171 -43.07996750 15.77176666
v -93.91241455 -43.07996750 15.39418602
v -93.18521881 -43.07996750 14.90755844
v -92.53512573 -43.07996750 14.32189465
v -91.97551727 -43.07996750 13.64924622
v -91.51790619 -43.07996750 12.90345383
v -95.72151947 -43.07996750 4.11575317
v -94.87860870 -43.07996750 4.35053015
v -94.07795715 -43.07996750 4.70348978
v -93.33604431 -43.07996750 5.16736841
v -92.66813660 -43.07996750 5.73262262
v -92.08796692 -43.07996750 6.38762140
v -91.60748291 -43.07996750 7.11888790
v -89.64134216 -43.07996750 6.94687271
v -89.08168793 -43.07996750 6.96082926
v -88.53917694 -43.07996750 7.09896994
v -88.04100800 -43.07996750 7.35436678
v -87.61215973 -43.07996750 7.71421337
v -87.27413940 -43.07996750 8.16046619
v -87.04389191 -43.07996750 8.67074776
v -86.93296051 -43.07996750 9.21947002
v -86.94692230 -43.07996750 9.77911854
v -87.08506012 -43.07996750 10.32162952
v -87.34045410 -43.07996750 10.81979942
v -87.70030212 -43.07996750 11.24864864
v -88.14655304 -43.07996750 11.58667183
v -88.65683746 -43.07996750 11.81691933
v -102.47772217 -43.07996750 16.70276070
v -103.54102325 -43.07996750 4.54918623
v -85.47222137 -43.07996750 2.96837091
v -84.40892029 -43.07996750 15.12194633
v -77.01846313 -38.07996750 9.29534626
v -77.33322144 -38.07996750 9.14857197
v -77.57879639 -38.07996750 8.90299702
v -77.72557068 -38.07996750 8.58823872
v -77.75583649 -38.07996750 8.24226475
v -77.66595459 -38.07996750 7.90680170
v -77.46675110 -38.07996750 7.62231350
v -77.18226624 -38.07996750 7.42311239
v -79.43311310 -38.07996750 2.44001722
v -79.43311310 -25.37996864 2.44001722
v -78.36981201 -38.07996750 14.59359264
v -78.36981201 -25.37996864 14.59359264
v -81.42550659 -23.37996864 2.61432886
v -80.36220551 -23.37996864 14.76790428
v -93.57907867 -23.37996864 3.67762876
v -92.51577759 -23.37996864 15.83120441
v -74.23560333 -38.07996750 14.23189640
v -96.15645599 -50.57996750 9.69029427
v -96.06092072 -50.57996750 10.01806259
v -96.09808350 -50.57996750 10.35744190
v -96.26229858 -50.57996750 10.65676308
v -96.52855682 -50.57996750 10.87045860
v -96.85632324 -50.57996750 10.96599388
v -97.19570923 -50.57996750 10.92882633
v -97.49502563 -50.57996750 10.76461315
v -97.70872498 -50.57996750 10.49835396
v -97.80426025 -50.57996750 10.17058563
v -97.76708984 -50.57996750 9.83120632
v -97.60287476 -50.57996750 9.53188515
v -97.33661652 -50.57996750 9.31818962
v -97.00885010 -50.57996750 9.22265339
v -96.66947174 -50.57996750 9.25982189
v -96.37014771 -50.57996750 9.42403507
v -94.45898438 -50.57996750 10.45665359
v -94.44210052 -50.57996750 9.87643433
v -94.55947876 -50.57996750 9.30796242
v -94.80479431 -50.57996750 8.78188229
v -94.60922241 -50.57996750 11.01733971
v -94.88470459 -50.57996750 11.52826500
v -95.27059937 -50.57996750 11.96188641
v -95.74608612 -50.57996750 12.29482746
v -96.28553772 -50.57996750 12.50913811
v -96.85987854 -50.57996750 12.59326649
v -97.43813324 -50.57996750 12.54267502
v -97.98913574 -50.57996750 12.36009312
v -98.48317719 -50.57996750 12.05536270
v -98.89363098 -50.57996750 11.64491272
v -99.19835663 -50.57996750 11.15086937
v -99.38094330 -50.57996750 10.59986782
v -99.43153381 -50.57996750 10.02161217
v -99.34740448 -50.57996750 9.44727612
v -99.13309479 -50.57996750 8.90782261
v -98.80014801 -50.57996750 8.43233395
v -98.36653137 -50.57996750 8.04644394
v -97.85560608 -50.57996750 7.77095509
v -97.29491425 -50.57996750 7.62071991
v -96.71469879 -50.57996750 7.60383701
v -96.14622498 -50.57996750 7.72121716
v -95.62014771 -50.57996750 7.96653223
v -95.16481781 -50.57996750 8.32655716
v -104.80566406 -29.15396881 13.04172325
v -104.80566406 -30.65396881 13.04172325
v -105.19786835 -29.15396881 8.55884743
v -105.19786835 -30.65396881 8.55884743
f 1 2 3
f 3 2 4
f 3 4 5
f 2 1 6
f 6 1 7
f 6 7 8
f 6 8 5
f 5 8 3
f 9 10 11
f 11 10 12
f 11 12 13
f 13 14 11
f 11 14 15
f 11 15 16
f 11 16 17
f 17 16 18
f 17 18 19
f 19 20 17
f 17 20 21
f 17 21 22
f 22 23 17
f 17 24 11
f 11 24 25
f 25 24 26
f 25 26 27
f 28 29 24
f 24 29 30
f 24 30 31
f 29 28 32
f 32 28 33
f 32 33 34
f 32 34 35
f 35 34 36
f 35 36 37
f 37 36 38
f 37 38 39
f 39 40 37
f 37 40 41
f 41 40 42
f 41 42 43
f 43 44 41
f 41 44 45
f 45 44 46
f 45 46 47
f 45 47 48
f 48 47 49
f 48 49 50
f 50 49 51
f 50 51 52
f 50 52 53
f 53 52 54
f 53 54 55
f 55 54 56
f 55 56 57
f 57 56 58
f 57 58 59
f 59 58 60
f 59 60 61
f 61 60 62
f 61 62 63
f 63 62 64
f 63 64 65
f 65 64 66
f 65 66 67
f 65 67 68
f 68 67 69
f 68 69 70
f 70 69 71
f 70 71 72
f 70 72 73
f 73 72 74
f 73 74 75
f 75 76 73
f 73 76 77
f 77 76 78
f 77 78 79
f 79 80 77
f 77 80 81
f 81 80 82
f 81 82 83
f 83 82 84
f 83 84 85
f 83 85 86
f 86 85 25
f 86 25 87
f 87 25 27
f 31 26 24
f 88 89 90
f 90 89 91
f 90 91 92
f 92 91 93
f 92 93 94
f 94 93 95
f 94 95 96
f 96 95 97
f 96 97 98
f 89 88 99
f 99 88 100
f 99 100 101
f 101 100 102
f 101 102 103
f 104 105 106
f 106 105 107
f 108 109 110
f 110 109 111
f 112 113 114
f 114 113 115
f 116 117 118
f 118 117 119
f 104 120 105
f 105 120 121
f 105 121 122
f 122 121 123
f 123 121 124
f 124 121 125
f 125 121 126
f 125 126 127
f 127 126 128
f 128 126 129
f 129 126 130
f 130 126 108
f 108 126 131
f 108 131 109
f 111 109 132
f 132 109 131
f 119 117 133
f 133 117 134
f 115 135 114
f 114 135 136
f 114 136 137
f 137 136 138
f 138 136 139
f 139 136 140
f 140 136 141
f 141 136 142
f 141 142 143
f 143 142 144
f 144 142 145
f 145 142 116
f 116 142 134
f 116 134 117
f 113 112 146
f 146 112 1
f 1 112 147
f 1 147 148
f 148 149 1
f 1 149 150
f 1 150 151
f 1 151 7
f 7 151 152
f 7 152 153
f 153 154 7
f 7 154 118
f 7 118 133
f 133 118 119
f 155 156 17
f 17 156 24
f 157 76 158
f 158 76 75
f 158 75 159
f 159 75 74
f 159 74 160
f 160 74 72
f 160 72 161
f 161 72 71
f 161 71 162
f 162 71 69
f 162 69 163
f 163 69 67
f 163 67 164
f 164 67 66
f 164 66 165
f 165 66 64
f 165 64 166
f 166 64 62
f 166 62 167
f 167 62 60
f 167 60 168
f 168 60 58
f 168 58 169
f 169 58 170
f 170 58 56
f 170 56 171
f 171 56 54
f 171 54 172
f 172 54 52
f 172 52 173
f 173 52 51
f 173 51 174
f 174 51 49
f 174 49 175
f 175 49 47
f 175 47 176
f 176 47 46
f 176 46 177
f 177 46 44
f 177 44 178
f 178 44 43
f 178 43 179
f 179 43 42
f 179 42 180
f 180 42 40
f 180 40 181
f 181 40 39
f 181 39 182
f 182 39 38
f 182 38 183
f 183 38 36
f 183 36 184
f 184 36 34
f 184 34 185
f 185 34 33
f 185 33 186
f 186 33 28
f 186 28 187
f 187 28 24
f 187 24 156
f 76 157 78
f 78 157 188
f 78 188 79
f 79 188 189
f 79 189 80
f 80 189 190
f 80 190 82
f 82 190 191
f 82 191 84
f 84 191 192
f 84 192 85
f 85 192 193
f 85 193 25
f 25 193 194
f 194 195 25
f 25 195 11
f 11 195 9
f 9 195 196
f 9 196 197
f 9 197 10
f 10 197 198
f 10 198 12
f 12 198 199
f 12 199 13
f 13 199 200
f 13 200 14
f 14 200 201
f 14 201 15
f 15 201 202
f 15 202 16
f 16 202 203
f 16 203 18
f 18 203 204
f 18 204 19
f 19 204 205
f 19 205 20
f 20 205 206
f 20 206 21
f 21 206 207
f 21 207 22
f 22 207 208
f 22 208 23
f 23 208 17
f 17 208 155
f 169 170 209
f 209 170 171
f 209 171 172
f 172 173 209
f 209 173 174
f 209 174 175
f 175 176 209
f 209 176 177
f 209 177 178
f 178 179 209
f 209 179 180
f 158 159 210
f 210 159 160
f 210 160 161
f 161 162 210
f 210 162 163
f 210 163 164
f 164 165 210
f 210 165 166
f 210 166 167
f 167 168 210
f 210 168 169
f 194 193 195
f 195 193 192
f 195 192 211
f 211 192 191
f 211 191 190
f 190 189 211
f 211 189 188
f 211 188 157
f 157 158 211
f 212 202 211
f 211 202 201
f 211 201 200
f 180 181 212
f 212 181 182
f 212 182 183
f 183 184 212
f 212 184 185
f 212 185 186
f 212 186 155
f 155 186 187
f 155 187 156
f 155 208 212
f 212 208 207
f 212 207 206
f 206 205 212
f 212 205 204
f 212 204 203
f 203 202 212
f 200 199 211
f 211 199 198
f 211 198 197
f 197 196 211
f 211 196 195
f 107 105 213
f 213 105 122
f 213 122 214
f 214 122 123
f 214 123 215
f 215 123 124
f 215 124 216
f 216 124 125
f 216 125 217
f 217 125 127
f 217 127 218
f 218 127 128
f 218 128 219
f 219 128 129
f 219 129 220
f 220 129 130
f 220 130 110
f 110 130 108
f 112 114 147
f 147 114 137
f 147 137 148
f 148 137 138
f 148 138 149
f 149 138 139
f 149 139 150
f 150 139 140
f 150 140 151
f 151 140 141
f 151 141 152
f 152 141 143
f 152 143 153
f 153 143 144
f 153 144 154
f 154 144 145
f 154 145 118
f 118 145 116
f 221 222 223
f 223 222 224
f 222 225 224
f 224 225 226
f 225 227 226
f 226 227 228
f 227 3 228
f 228 3 8
f 115 113 135
f 135 113 146
f 210 169 136
f 136 169 142
f 142 169 209
f 211 126 212
f 212 126 121
f 104 106 120
f 120 106 229
f 106 107 229
f 229 107 223
f 223 107 213
f 223 213 214
f 214 215 223
f 223 215 216
f 223 216 221
f 221 216 217
f 221 217 218
f 218 219 221
f 221 219 220
f 221 220 110
f 111 132 110
f 110 132 221
f 229 223 120
f 120 223 121
f 121 223 212
f 212 223 180
f 180 223 7
f 180 7 142
f 142 7 133
f 142 133 134
f 224 228 223
f 223 228 8
f 223 8 7
f 224 226 228
f 142 209 180
f 132 131 221
f 221 131 126
f 221 126 211
f 211 158 221
f 221 158 1
f 221 1 3
f 210 136 158
f 158 136 1
f 135 146 136
f 136 146 1
f 3 227 221
f 221 227 222
f 222 227 225
f 92 230 90
f 90 230 231
f 90 231 88
f 88 231 232
f 88 232 100
f 100 232 233
f 100 233 102
f 102 233 234
f 102 234 103
f 103 234 235
f 103 235 101
f 101 235 236
f 101 236 99
f 99 236 237
f 99 237 89
f 89 237 238
f 89 238 91
f 91 238 239
f 91 239 93
f 93 239 240
f 93 240 95
f 95 240 241
f 95 241 97
f 97 241 242
f 97 242 98
f 98 242 243
f 98 243 96
f 96 243 244
f 96 244 94
f 94 244 245
f 94 245 92
f 92 245 230
f 31 246 26
f 26 246 247
f 26 247 27
f 27 247 248
f 27 248 249
f 31 30 246
f 246 30 250
f 250 30 29
f 250 29 251
f 251 29 32
f 251 32 252
f 252 32 35
f 252 35 253
f 253 35 37
f 253 37 254
f 254 37 41
f 254 41 255
f 255 41 45
f 255 45 256
f 256 45 48
f 256 48 257
f 257 48 50
f 257 50 258
f 258 50 53
f 258 53 259
f 259 53 55
f 259 55 260
f 260 55 57
f 260 57 261
f 261 57 59
f 261 59 262
f 262 59 61
f 262 61 263
f 263 61 63
f 263 63 264
f 264 63 65
f 264 65 265
f 265 65 68
f 265 68 266
f 266 68 70
f 266 70 267
f 267 70 73
f 267 73 268
f 268 73 77
f 268 77 269
f 269 77 81
f 269 81 270
f 270 81 83
f 270 83 271
f 271 83 86
f 271 86 272
f 272 86 87
f 272 87 249
f 249 87 27
f 248 247 231
f 231 247 246
f 231 246 232
f 232 246 250
f 232 250 251
f 232 251 233
f 233 251 252
f 233 252 234
f 234 252 253
f 234 253 254
f 234 254 235
f 235 254 255
f 235 255 256
f 235 256 236
f 236 256 257
f 236 257 237
f 237 257 258
f 237 258 259
f 237 259 238
f 238 259 260
f 238 260 261
f 238 261 239
f 239 261 262
f 239 262 240
f 240 262 263
f 240 263 264
f 240 264 241
f 241 264 265
f 241 265 266
f 241 266 242
f 242 266 267
f 242 267 243
f 243 267 268
f 243 268 269
f 243 269 244
f 244 269 270
f 244 270 271
f 244 271 245
f 245 271 272
f 245 272 230
f 230 272 249
f 230 249 248
f 230 248 231
f 5 273 6
f 6 273 274
f 273 275 274
f 274 275 276
f 275 4 276
f 276 4 2
f 4 275 5
f 5 275 273
f 276 2 274
f 274 2 6

