# https://github.com/mikedh/trimesh

o servo_lfs_1.stl
v 39.87493896 37.50000000 36.33275604
v 45.12493896 41.00000000 33.30166626
v 33.77494049 37.50000000 25.76724434
v 39.02494049 41.00000000 22.73615646
v 60.83275604 27.07350349 24.23275566
v 58.90775681 28.57399940 20.89855766
v 60.83275604 36.00000000 24.23275566
v 56.65775681 28.57399940 17.00144196
v 54.73275375 36.00000000 13.66724491
v 54.73275375 27.07350349 13.66724491
v 56.65775681 27.07399940 17.00144196
v 58.90775681 27.07399940 20.89855766
v 32.73093414 37.50000000 32.25897598
v 34.46298599 37.50000000 31.25897408
v 30.18093491 37.50000000 27.84224510
v 34.83245850 37.50000000 31.13355446
v 35.22180557 37.50000000 31.15907478
v 35.57174683 37.50000000 31.33164597
v 35.82901001 37.50000000 31.62500000
v 35.95442963 37.50000000 31.99447441
v 35.92891312 37.50000000 32.38381958
v 35.75634003 37.50000000 32.73376083
v 35.46298599 37.50000000 32.99102402
v 36.28093338 37.50000000 38.40775681
v 33.73093414 37.50000000 33.99102402
v 44.24024200 44.50000000 23.96590424
v 43.85907745 44.50000000 24.43274689
v 44.72205353 44.50000000 23.60384750
v 43.60071182 44.50000000 24.97724152
v 43.48015976 44.50000000 25.56774521
v 43.50442886 44.50000000 26.16993904
v 43.67210770 44.50000000 26.74882698
v 48.93128586 44.50000000 26.94714928
v 43.97344589 44.50000000 27.27076721
v 47.22205353 44.50000000 27.93397522
v 44.39094162 44.50000000 27.70542336
v 44.90032196 44.50000000 28.02753639
v 45.47198868 44.50000000 28.21838760
v 46.07271957 44.50000000 28.26688385
v 46.66759872 44.50000000 28.17020607
v 49.76482010 44.50000000 27.45241165
v 51.77742004 44.50000000 24.39329910
v 51.20493317 44.50000000 24.13841057
v 50.71381760 44.50000000 23.74915886
v 52.39530945 44.50000000 24.49780655
v 50.66819000 44.50000000 27.81846046
v 51.61833191 44.50000000 28.03594780
v 53.01977921 44.50000000 24.44536972
v 52.59098816 44.50000000 28.09932137
v 53.56131744 44.50000000 28.00696373
v 53.61158752 44.50000000 24.23927879
v 54.50454712 44.50000000 27.76123047
v 55.39659882 44.50000000 27.36840057
v 56.21469116 44.50000000 26.83849907
v 54.13355255 44.50000000 23.89248848
v 56.93793869 44.50000000 26.18505859
v 57.54787064 44.50000000 25.42476273
v 54.55287170 44.50000000 23.42678452
v 58.02891922 44.50000000 24.57702255
v 58.36880112 44.50000000 23.66348457
v 54.84320450 44.50000000 22.87142944
v 58.55883408 44.50000000 22.70747375
v 58.59416962 44.50000000 21.73339844
v 54.98630524 44.50000000 22.26132202
v 58.47390747 44.50000000 20.76613045
v 54.97318268 44.50000000 21.63479233
v 58.20111465 44.50000000 19.83036804
v 54.80465698 44.50000000 21.03121185
v 57.78275681 44.50000000 18.95000076
v 54.49132538 44.50000000 20.48850250
v 57.22951508 44.50000000 18.14750671
v 54.05286789 44.50000000 20.04076576
v 56.55551529 44.50000000 17.44337845
v 53.51684189 44.50000000 19.71613693
v 55.77796936 44.50000000 16.85559273
v 52.91692352 44.50000000 19.53500938
v 54.91672897 44.50000000 16.39915848
v 53.99378204 44.50000000 16.08572769
v 52.29080582 44.50000000 19.50876808
v 53.03269196 44.50000000 15.92330360
v 52.05800629 44.50000000 15.91603374
v 51.67783356 44.50000000 19.63905907
v 51.09460068 44.50000000 16.06410408
v 50.16708374 44.50000000 16.36373329
v 51.11651993 44.50000000 19.91769600
v 49.29912949 44.50000000 16.80727196
v 48.51290131 44.50000000 17.38339424
v 47.82847595 44.50000000 18.07739067
v 50.64213943 44.50000000 20.32717323
v 47.26332474 44.50000000 18.87154198
v 46.83188248 44.50000000 19.74557114
v 50.28449249 44.50000000 20.84176064
v 46.54516220 44.50000000 20.67716217
v 46.41048431 44.50000000 21.64252853
v 50.06605148 44.50000000 21.42912292
v 46.43128586 44.50000000 22.61702156
v 50.00054932 44.50000000 22.05235672
v 50.09209442 44.50000000 22.67230034
v 50.33493805 44.50000000 23.25000000
v 51.74222946 44.50000000 22.43750000
v 51.98568726 44.50000000 22.70788956
v 51.62979507 44.50000000 22.09146309
v 51.66782379 44.50000000 21.72961044
v 52.31807709 44.50000000 22.85587883
v 51.84974670 44.50000000 21.41451073
v 52.68192291 44.50000000 22.85587883
v 52.14410400 44.50000000 21.20064735
v 53.01431274 44.50000000 22.70788956
v 52.50000000 44.50000000 21.12500000
v 53.25777054 44.50000000 22.43750000
v 52.85589600 44.50000000 21.20064735
v 53.37020493 44.50000000 22.09146309
v 53.15025330 44.50000000 21.41451073
v 53.33217621 44.50000000 21.72961044
v 34.46298599 36.00000000 31.25897408
v 32.73093414 36.00000000 32.25897598
v 33.73093414 36.00000000 33.99102402
v 35.46298599 36.00000000 32.99102402
v 61.87675858 36.00000000 17.74102592
v 60.14471054 36.00000000 18.74102592
v 61.87675858 37.50000000 17.74102592
v 60.14471054 37.50000000 18.74102592
v 60.87675858 37.50000000 16.00897408
v 59.14471054 37.50000000 17.00897408
v 60.87675858 36.00000000 16.00897408
v 59.14471054 36.00000000 17.00897408
v 36.28093338 36.00000000 38.40775681
v 58.32675934 37.50000000 11.59224510
v 58.32675934 36.00000000 11.59224510
v 64.42675781 37.50000000 22.15775490
v 60.83275604 37.50000000 24.23275566
v 59.77523422 37.50000000 18.86644554
v 59.38589096 37.50000000 18.84092522
v 59.03594971 37.50000000 18.66835403
v 58.77868271 37.50000000 18.37500000
v 54.73275375 37.50000000 13.66724491
v 58.65326309 37.50000000 18.00552559
v 58.67878342 37.50000000 17.61618042
v 58.85135651 37.50000000 17.26623917
v 64.42675781 36.00000000 22.15775490
v 59.77523422 36.00000000 18.86644554
v 59.38589096 36.00000000 18.84092522
v 59.03594971 36.00000000 18.66835403
v 58.77868271 36.00000000 18.37500000
v 58.65326309 36.00000000 18.00552559
v 58.67878342 36.00000000 17.61618042
v 58.85135651 36.00000000 17.26623917
v 46.43128586 41.00000000 22.61702156
v 44.72205353 41.00000000 23.60384750
v 48.93128586 41.00000000 26.94714928
v 49.67580032 41.00000000 27.40683937
v 50.47842789 41.00000000 27.75527954
v 51.32264709 41.00000000 27.98530197
v 52.19109344 41.00000000 28.09217262
v 53.06589508 41.00000000 28.07369423
v 53.92905045 41.00000000 27.93024635
v 54.76280594 41.00000000 27.66477776
v 55.54999924 41.00000000 27.28275490
v 56.33885574 41.00000000 26.74059105
v 57.03318405 41.00000000 26.08169746
v 57.61589050 41.00000000 25.32229805
v 58.07262802 41.00000000 24.48109436
v 58.39214706 41.00000000 23.57879639
v 58.56658173 41.00000000 22.63762283
v 58.59164047 41.00000000 21.68074989
v 58.46670151 41.00000000 20.73173904
v 58.19483948 41.00000000 19.81395531
v 57.78275681 41.00000000 18.95000076
v 57.24058914 41.00000000 18.16114616
v 56.58169556 41.00000000 17.46681595
v 55.82229996 41.00000000 16.88410950
v 54.98109436 41.00000000 16.42737198
v 54.07879639 41.00000000 16.10785294
v 53.13762283 41.00000000 15.93341637
v 52.18075180 41.00000000 15.90835953
v 51.23173904 41.00000000 16.03330040
v 50.31395721 41.00000000 16.30515862
v 49.45000076 41.00000000 16.71724510
v 48.72555923 41.00000000 17.20796394
v 48.07878113 41.00000000 17.79728317
v 47.52297211 41.00000000 18.47307396
v 47.06956863 41.00000000 19.22143555
v 46.72790146 41.00000000 20.02696609
v 46.50499344 41.00000000 20.87309265
v 46.40544128 41.00000000 21.74240685
v 47.22205353 41.00000000 27.93397522
v 44.24024200 41.00000000 23.96590424
v 43.85907745 41.00000000 24.43274689
v 43.60071182 41.00000000 24.97724152
v 43.48015976 41.00000000 25.56774521
v 43.50442886 41.00000000 26.16993904
v 43.67210770 41.00000000 26.74882698
v 43.97344589 41.00000000 27.27076721
v 44.39094162 41.00000000 27.70542336
v 44.90032196 41.00000000 28.02753639
v 45.47198868 41.00000000 28.21838760
v 46.07271957 41.00000000 28.26688385
v 46.66759872 41.00000000 28.17020607
v 54.73275375 41.00000000 13.66724491
v 60.83275604 41.00000000 24.23275566
v 34.83245850 36.00000000 31.13355446
v 35.22180557 36.00000000 31.15907478
v 35.57174683 36.00000000 31.33164597
v 35.82901001 36.00000000 31.62500000
v 35.95442963 36.00000000 31.99447441
v 35.92891312 36.00000000 32.38381958
v 35.75634003 36.00000000 32.73376083
v 39.87493896 23.29999924 36.33275604
v 39.87493896 36.00000000 36.33275604
v 33.77494049 23.29999924 25.76724434
v 33.77494049 36.00000000 25.76724434
v 41.60699081 21.29999924 35.33275604
v 35.50699234 21.29999924 24.76724434
v 52.17250061 21.29999924 29.23275566
v 46.07250214 21.29999924 18.66724586
v 30.18093491 36.00000000 27.84224510
v 51.62979507 48.50000000 22.09146309
v 51.74222946 48.50000000 22.43750000
v 51.98568726 48.50000000 22.70788956
v 52.31807709 48.50000000 22.85587883
v 52.68192291 48.50000000 22.85587883
v 53.01431274 48.50000000 22.70788956
v 53.25777054 48.50000000 22.43750000
v 53.37020493 48.50000000 22.09146309
v 53.33217621 48.50000000 21.72961044
v 53.15025330 48.50000000 21.41451073
v 52.85589600 48.50000000 21.20064735
v 52.50000000 48.50000000 21.12500000
v 52.14410400 48.50000000 21.20064735
v 51.84974670 48.50000000 21.41451073
v 51.66782379 48.50000000 21.72961044
v 50.71381760 48.50000000 23.74915886
v 50.33493805 48.50000000 23.25000000
v 50.09209442 48.50000000 22.67230034
v 50.00054932 48.50000000 22.05235672
v 50.06605148 48.50000000 21.42912292
v 50.28449249 48.50000000 20.84176064
v 50.64213943 48.50000000 20.32717323
v 51.11651993 48.50000000 19.91769600
v 51.67783356 48.50000000 19.63905907
v 52.29080582 48.50000000 19.50876808
v 52.91692352 48.50000000 19.53500938
v 53.51684189 48.50000000 19.71613693
v 54.05286789 48.50000000 20.04076576
v 54.49132538 48.50000000 20.48850250
v 54.80465698 48.50000000 21.03121185
v 54.97318268 48.50000000 21.63479233
v 54.98630524 48.50000000 22.26132202
v 54.84320450 48.50000000 22.87142944
v 54.55287170 48.50000000 23.42678452
v 54.13355255 48.50000000 23.89248848
v 53.61158752 48.50000000 24.23927879
v 53.01977921 48.50000000 24.44536972
v 52.39530945 48.50000000 24.49780655
v 51.77742004 48.50000000 24.39329910
v 51.20493317 48.50000000 24.13841057
v 58.38980484 27.07399940 16.00144196
v 58.38980484 28.57399940 16.00144196
v 60.63980484 27.07399940 19.89855766
v 60.63980484 28.57399940 19.89855766
f 1 2 3
f 3 2 4
f 5 6 7
f 7 6 8
f 7 8 9
f 9 8 10
f 10 8 11
f 10 11 5
f 5 11 12
f 5 12 6
f 13 14 15
f 15 14 3
f 3 14 16
f 3 16 17
f 17 18 3
f 3 18 19
f 3 19 1
f 1 19 20
f 1 20 21
f 21 22 1
f 1 22 23
f 1 23 24
f 24 23 25
f 26 27 28
f 28 27 29
f 28 29 30
f 30 31 28
f 28 31 32
f 28 32 33
f 33 32 34
f 33 34 35
f 35 34 36
f 35 36 37
f 37 38 35
f 35 38 39
f 35 39 40
f 41 42 33
f 33 42 43
f 33 43 44
f 42 41 45
f 45 41 46
f 45 46 47
f 45 47 48
f 48 47 49
f 48 49 50
f 48 50 51
f 51 50 52
f 51 52 53
f 53 54 51
f 51 54 55
f 55 54 56
f 55 56 57
f 55 57 58
f 58 57 59
f 58 59 60
f 58 60 61
f 61 60 62
f 61 62 63
f 61 63 64
f 64 63 65
f 64 65 66
f 66 65 67
f 66 67 68
f 68 67 69
f 68 69 70
f 70 69 71
f 70 71 72
f 72 71 73
f 72 73 74
f 74 73 75
f 74 75 76
f 76 75 77
f 76 77 78
f 76 78 79
f 79 78 80
f 79 80 81
f 79 81 82
f 82 81 83
f 82 83 84
f 82 84 85
f 85 84 86
f 85 86 87
f 87 88 85
f 85 88 89
f 89 88 90
f 89 90 91
f 89 91 92
f 92 91 93
f 92 93 94
f 92 94 95
f 95 94 96
f 95 96 97
f 97 96 98
f 98 96 99
f 99 96 33
f 99 33 44
f 96 28 33
f 100 101 102
f 102 101 103
f 103 101 104
f 103 104 105
f 105 104 106
f 105 106 107
f 107 106 108
f 107 108 109
f 109 108 110
f 109 110 111
f 111 110 112
f 111 112 113
f 113 112 114
f 14 13 115
f 115 13 116
f 25 23 117
f 117 23 118
f 119 120 121
f 121 120 122
f 123 124 125
f 125 124 126
f 25 117 24
f 24 117 127
f 123 125 128
f 128 125 129
f 121 122 130
f 130 122 131
f 131 122 132
f 131 132 133
f 133 134 131
f 131 134 135
f 131 135 136
f 136 135 137
f 136 137 138
f 138 139 136
f 136 139 124
f 136 124 128
f 128 124 123
f 119 140 120
f 120 140 7
f 120 7 141
f 141 7 142
f 142 7 143
f 143 7 144
f 144 7 9
f 144 9 145
f 145 9 146
f 146 9 147
f 147 9 126
f 126 9 129
f 126 129 125
f 148 149 96
f 96 149 28
f 150 151 33
f 33 151 41
f 41 151 152
f 41 152 46
f 46 152 153
f 46 153 47
f 47 153 154
f 47 154 49
f 49 154 155
f 49 155 50
f 50 155 156
f 50 156 52
f 52 156 157
f 52 157 53
f 53 157 158
f 53 158 54
f 54 158 159
f 54 159 56
f 56 159 160
f 56 160 57
f 57 160 161
f 57 161 59
f 59 161 162
f 59 162 60
f 60 162 163
f 60 163 62
f 62 163 164
f 62 164 63
f 63 164 165
f 63 165 65
f 65 165 166
f 65 166 67
f 67 166 167
f 67 167 69
f 69 167 168
f 69 168 169
f 69 169 71
f 71 169 170
f 71 170 73
f 73 170 171
f 73 171 75
f 75 171 172
f 75 172 77
f 77 172 173
f 77 173 78
f 78 173 174
f 78 174 80
f 80 174 175
f 80 175 81
f 81 175 176
f 81 176 83
f 83 176 177
f 83 177 84
f 84 177 178
f 84 178 86
f 86 178 179
f 86 179 87
f 87 179 180
f 87 180 88
f 88 180 181
f 88 181 90
f 90 181 182
f 90 182 91
f 91 182 183
f 91 183 93
f 93 183 184
f 93 184 94
f 94 184 185
f 94 185 96
f 96 185 148
f 186 150 35
f 35 150 33
f 28 149 26
f 26 149 187
f 26 187 27
f 27 187 188
f 27 188 29
f 29 188 189
f 29 189 30
f 30 189 190
f 30 190 31
f 31 190 191
f 31 191 32
f 32 191 192
f 32 192 34
f 34 192 193
f 34 193 36
f 36 193 194
f 36 194 37
f 37 194 195
f 37 195 38
f 38 195 196
f 38 196 39
f 39 196 197
f 39 197 40
f 40 197 198
f 40 198 35
f 35 198 186
f 178 177 199
f 199 177 176
f 199 176 175
f 175 174 199
f 199 174 173
f 199 173 172
f 172 171 199
f 199 171 170
f 199 170 169
f 169 168 199
f 168 167 200
f 200 167 166
f 200 166 165
f 165 164 200
f 200 164 163
f 200 163 162
f 162 161 200
f 200 161 160
f 200 160 159
f 159 158 200
f 158 157 2
f 2 157 156
f 2 156 155
f 155 154 2
f 2 154 153
f 2 153 152
f 2 152 186
f 186 152 151
f 186 151 150
f 186 198 2
f 2 198 197
f 2 197 196
f 196 195 2
f 2 195 194
f 2 194 193
f 193 192 2
f 2 192 4
f 4 192 191
f 4 191 190
f 190 189 4
f 4 189 188
f 4 188 187
f 187 149 4
f 4 149 184
f 4 184 183
f 148 185 149
f 149 185 184
f 183 182 4
f 4 182 181
f 4 181 180
f 180 179 4
f 4 179 178
f 14 115 16
f 16 115 201
f 16 201 17
f 17 201 202
f 17 202 18
f 18 202 203
f 18 203 19
f 19 203 204
f 19 204 20
f 20 204 205
f 20 205 21
f 21 205 206
f 21 206 22
f 22 206 207
f 22 207 23
f 23 207 118
f 122 120 132
f 132 120 141
f 132 141 133
f 133 141 142
f 133 142 134
f 134 142 143
f 134 143 135
f 135 143 144
f 135 144 137
f 137 144 145
f 137 145 138
f 138 145 146
f 138 146 139
f 139 146 147
f 139 147 124
f 124 147 126
f 208 209 210
f 210 209 211
f 212 208 213
f 213 208 210
f 214 212 215
f 215 212 213
f 5 214 10
f 10 214 215
f 119 121 140
f 140 121 130
f 200 131 168
f 168 131 136
f 168 136 199
f 116 13 216
f 216 13 15
f 116 216 115
f 115 216 211
f 115 211 201
f 201 211 202
f 202 211 203
f 203 211 204
f 204 211 209
f 204 209 205
f 205 209 206
f 206 209 207
f 207 209 118
f 118 209 127
f 118 127 117
f 216 3 211
f 211 3 4
f 211 4 178
f 216 15 3
f 199 136 178
f 178 136 9
f 178 9 211
f 211 9 10
f 211 10 215
f 136 128 9
f 9 128 129
f 213 210 215
f 215 210 211
f 24 127 1
f 1 127 209
f 1 209 2
f 2 209 158
f 158 209 7
f 158 7 131
f 131 7 130
f 130 7 140
f 208 214 209
f 209 214 5
f 209 5 7
f 208 212 214
f 131 200 158
f 102 217 100
f 100 217 218
f 100 218 101
f 101 218 219
f 101 219 104
f 104 219 220
f 104 220 106
f 106 220 221
f 106 221 108
f 108 221 222
f 108 222 110
f 110 222 223
f 110 223 112
f 112 223 224
f 112 224 114
f 114 224 225
f 114 225 113
f 113 225 226
f 113 226 111
f 111 226 227
f 111 227 109
f 109 227 228
f 109 228 107
f 107 228 229
f 107 229 105
f 105 229 230
f 105 230 103
f 103 230 231
f 103 231 102
f 102 231 217
f 44 232 99
f 99 232 233
f 99 233 98
f 98 233 234
f 98 234 97
f 97 234 235
f 97 235 95
f 95 235 236
f 95 236 92
f 92 236 237
f 92 237 89
f 89 237 238
f 89 238 85
f 85 238 239
f 85 239 82
f 82 239 240
f 82 240 79
f 79 240 241
f 79 241 76
f 76 241 242
f 76 242 74
f 74 242 243
f 74 243 72
f 72 243 244
f 72 244 70
f 70 244 245
f 70 245 68
f 68 245 246
f 68 246 66
f 66 246 247
f 66 247 64
f 64 247 248
f 64 248 61
f 61 248 249
f 61 249 58
f 58 249 250
f 58 250 55
f 55 250 251
f 55 251 51
f 51 251 252
f 51 252 48
f 48 252 253
f 48 253 45
f 45 253 254
f 45 254 42
f 42 254 255
f 42 255 43
f 43 255 256
f 43 256 44
f 44 256 232
f 234 233 218
f 218 233 232
f 218 232 219
f 219 232 256
f 219 256 255
f 219 255 220
f 220 255 254
f 220 254 221
f 221 254 253
f 221 253 252
f 221 252 222
f 222 252 251
f 222 251 223
f 223 251 250
f 223 250 249
f 223 249 224
f 224 249 248
f 224 248 247
f 224 247 225
f 225 247 246
f 225 246 226
f 226 246 245
f 226 245 244
f 226 244 227
f 227 244 243
f 227 243 242
f 227 242 228
f 228 242 241
f 228 241 240
f 228 240 229
f 229 240 239
f 229 239 230
f 230 239 238
f 230 238 237
f 230 237 231
f 231 237 236
f 231 236 217
f 217 236 235
f 217 235 234
f 217 234 218
f 257 11 258
f 258 11 8
f 259 257 260
f 260 257 258
f 12 259 6
f 6 259 260
f 259 12 257
f 257 12 11
f 6 260 8
f 8 260 258

