# https://github.com/mikedh/trimesh

o servos_lf_1.stl
v 30.76439476 38.07996750 14.23189640
v 26.63018608 39.57996750 14.59359264
v 26.63018608 38.07996750 14.59359264
v 20.59107590 43.07996750 15.12194633
v 8.59906197 43.07996750 16.17111206
v 30.76439476 39.57996750 14.23189640
v 2.52227426 43.07996750 16.70276070
v 2.52227426 39.57996750 16.70276070
v 2.52227426 38.07996750 16.70276070
v 2.52227426 29.15347099 16.70276070
v 12.48422146 23.37996864 15.83120441
v -1.61193359 39.57996750 17.06445885
v -1.61193359 38.07996750 17.06445885
v 24.63779640 23.37996864 14.76790428
v 26.63018608 25.37996864 14.59359264
v 1.45897424 29.15347099 4.54918623
v 1.79452395 30.65396881 8.38453579
v 1.45897424 38.07996750 4.54918623
v 2.18672466 30.65396881 12.86741161
v 2.18672466 29.15396881 12.86741161
v 1.79452395 29.15396881 8.38453579
v 16.34316254 46.57996750 11.81691933
v 16.85344315 46.57996750 11.58667183
v 15.79444027 46.57996750 11.92784595
v 17.29969597 46.57996750 11.24864864
v 17.65954399 46.57996750 10.81979942
v 17.91493988 46.57996750 10.32162952
v 18.05307961 46.57996750 9.77911854
v 18.06703758 46.57996750 9.21947002
v 15.35866070 46.57996750 6.94687271
v 17.95611000 46.57996750 8.67074776
v 17.72586250 46.57996750 8.16046619
v 17.38784027 46.57996750 7.71421337
v 16.95899010 46.57996750 7.35436678
v 16.46082115 46.57996750 7.09896994
v 15.91830921 46.57996750 6.96082926
v 13.39251995 46.57996750 7.11888790
v 13.82829952 46.57996750 12.09986115
v 10.55789852 46.57996750 9.87643433
v 10.54101562 46.57996750 10.45665359
v 12.88406754 46.57996750 6.35135269
v 9.83517933 46.57996750 8.32655716
v 10.19520378 46.57996750 8.78188229
v 10.44051838 46.57996750 9.30796242
v 9.37985325 46.57996750 7.96653223
v 12.26589203 46.57996750 5.66908169
v 11.55207634 46.57996750 5.08761692
v 8.85377407 46.57996750 7.72121716
v 10.75888062 46.57996750 4.62020350
v 8.28530121 46.57996750 7.60383701
v 9.90437412 46.57996750 4.27748871
v 9.00802231 46.57996750 4.06728029
v 8.09024334 46.57996750 3.99436665
v 7.70508242 46.57996750 7.62071991
v 7.17194414 46.57996750 4.06040812
v 6.27404404 46.57996750 4.26390123
v 5.41699600 46.57996750 4.60020924
v 7.14439678 46.57996750 7.77095509
v 4.62032366 46.57996750 5.06167221
v 3.90217543 46.57996750 5.63777781
v 6.63347101 46.57996750 8.04644394
v 3.27891016 46.57996750 6.31540203
v 6.19984913 46.57996750 8.43233395
v 2.76472592 46.57996750 7.07910919
v 2.37133527 46.57996750 7.91150236
v 5.86690855 46.57996750 8.90782261
v 2.10769987 46.57996750 8.79362011
v 5.65259743 46.57996750 9.44727612
v 1.97982526 46.57996750 9.70536709
v 5.56846952 46.57996750 10.02161217
v 1.99062431 46.57996750 10.62597370
v 5.61906052 46.57996750 10.59986782
v 2.13985109 46.57996750 11.53447056
v 5.80164242 46.57996750 11.15086937
v 2.42410612 46.57996750 12.41016102
v 6.10637283 46.57996750 11.64491272
v 2.83691454 46.57996750 13.23309708
v 6.51682329 46.57996750 12.05536270
v 3.36887217 46.57996750 13.98453236
v 4.00786114 46.57996750 14.64735031
v 7.01086617 46.57996750 12.36009312
v 4.73932600 46.57996750 15.20645142
v 7.56186819 46.57996750 12.54267502
v 5.54660368 46.57996750 15.64909935
v 6.41130495 46.57996750 15.96521091
v 8.14012337 46.57996750 12.59326649
v 7.31373167 46.57996750 16.14758492
v 8.23332691 46.57996750 16.19206619
v 9.14914322 46.57996750 16.09764481
v 8.71445942 46.57996750 12.50913811
v 10.04031754 46.57996750 15.86646748
v 10.88654900 46.57996750 15.50380325
v 11.66856194 46.57996750 15.01791191
v 9.25391293 46.57996750 12.29482746
v 12.36854172 46.57996750 14.41986275
v 9.72940159 46.57996750 11.96188641
v 12.97054291 46.57996750 13.72327805
v 13.46085167 46.57996750 12.94402790
v 10.11529255 46.57996750 11.52826500
v 10.39078045 46.57996750 11.01733971
v 8.84354687 46.57996750 9.69029427
v 7.23290968 46.57996750 9.83120632
v 8.93908215 46.57996750 10.01806259
v 7.19574165 46.57996750 10.17058563
v 8.90191460 46.57996750 10.35744190
v 7.29127741 46.57996750 10.49835396
v 8.73770046 46.57996750 10.65676308
v 7.50497293 46.57996750 10.76461315
v 8.47144222 46.57996750 10.87045860
v 7.80429459 46.57996750 10.92882633
v 8.14367294 46.57996750 10.96599388
v 7.39712334 46.57996750 9.53188515
v 8.62985134 46.57996750 9.42403507
v 7.66338205 46.57996750 9.31818962
v 8.33052921 46.57996750 9.25982189
v 7.99115086 46.57996750 9.22265339
v 28.32751083 39.57996750 9.32561493
v 30.31990051 39.57996750 9.15130329
v 28.32751083 38.07996750 9.32561493
v 30.31990051 38.07996750 9.15130329
v 30.14558792 39.57996750 7.15891409
v 28.15319824 39.57996750 7.33322525
v 30.14558792 38.07996750 7.15891409
v 28.15319824 38.07996750 7.33322525
v -2.23073936 38.07996750 9.99147606
v -0.23835000 38.07996750 9.81716442
v -2.23073936 39.57996750 9.99147606
v -0.23835000 39.57996750 9.81716442
v -2.05642796 39.57996750 11.98386478
v -0.06403852 39.57996750 11.80955315
v -2.05642796 38.07996750 11.98386478
v -0.06403852 38.07996750 11.80955315
v 27.98153496 39.57996750 9.29534626
v 27.66677856 39.57996750 9.14857197
v 27.42120171 39.57996750 8.90299702
v 27.27442932 39.57996750 8.58823872
v 25.56688690 39.57996750 2.44001722
v 27.24415970 39.57996750 8.24226475
v 27.33404732 39.57996750 7.90680170
v 27.53324699 39.57996750 7.62231350
v 27.81773567 39.57996750 7.42311239
v 29.70109367 39.57996750 2.07832098
v 29.70109367 38.07996750 2.07832098
v -2.67523360 39.57996750 4.91088247
v 1.45897424 39.57996750 4.54918623
v 0.10762478 39.57996750 9.84743309
v 0.42238218 39.57996750 9.99420643
v 0.66795778 39.57996750 10.23978233
v 0.81473154 39.57996750 10.55453968
v 0.84500045 39.57996750 10.90051460
v 0.75511354 39.57996750 11.23597717
v 0.55591249 39.57996750 11.52046585
v 0.27142400 39.57996750 11.71966648
v -2.67523360 38.07996750 4.91088247
v 0.10762478 38.07996750 9.84743309
v 0.42238218 38.07996750 9.99420643
v 0.66795778 38.07996750 10.23978233
v 0.81473154 38.07996750 10.55453968
v 0.84500045 38.07996750 10.90051460
v 0.75511354 38.07996750 11.23597717
v 0.55591249 38.07996750 11.52046585
v 0.27142400 38.07996750 11.71966648
v 13.82829952 43.07996750 12.09986115
v 15.79444027 43.07996750 11.92784595
v 13.39251995 43.07996750 7.11888790
v 12.91203308 43.07996750 6.38762140
v 12.33186531 43.07996750 5.73262262
v 11.66395378 43.07996750 5.16736841
v 10.92204094 43.07996750 4.70348978
v 10.12139225 43.07996750 4.35053015
v 9.27848244 43.07996750 4.11575317
v 8.41065311 43.07996750 4.00398874
v 7.53576183 43.07996750 4.01753616
v 6.67635632 43.07996750 4.15505075
v 5.84526873 43.07996750 4.41347218
v 5.05941725 43.07996750 4.78753901
v 4.33480024 43.07996750 5.26963663
v 3.68616819 43.07996750 5.84995079
v 3.12672567 43.07996750 6.51666880
v 2.66786122 43.07996750 7.25621700
v 2.31891608 43.07996750 8.05354118
v 2.08699369 43.07996750 8.89240932
v 1.97681558 43.07996750 9.75574589
v 1.99062431 43.07996750 10.62597370
v 2.12813902 43.07996750 11.48537922
v 2.38655996 43.07996750 12.31646729
v 2.76062703 43.07996750 13.10231876
v 3.24272466 43.07996750 13.82693577
v 3.82303905 43.07996750 14.47556782
v 4.48975658 43.07996750 15.03501034
v 5.22930479 43.07996750 15.49387455
v 6.02662897 43.07996750 15.84282017
v 6.86549759 43.07996750 16.07474136
v 7.72883368 43.07996750 16.18492126
v 9.46301460 43.07996750 16.03252983
v 10.29825115 43.07996750 15.77176666
v 11.08758736 43.07996750 15.39418602
v 11.81478119 43.07996750 14.90755844
v 12.46487045 43.07996750 14.32189465
v 13.02447987 43.07996750 13.64924622
v 13.48209476 43.07996750 12.90345383
v 15.35866070 43.07996750 6.94687271
v 16.34316254 43.07996750 11.81691933
v 16.85344315 43.07996750 11.58667183
v 17.29969597 43.07996750 11.24864864
v 17.65954399 43.07996750 10.81979942
v 17.91493988 43.07996750 10.32162952
v 18.05307961 43.07996750 9.77911854
v 18.06703758 43.07996750 9.21947002
v 17.95611000 43.07996750 8.67074776
v 17.72586250 43.07996750 8.16046619
v 17.38784027 43.07996750 7.71421337
v 16.95899010 43.07996750 7.35436678
v 16.46082115 43.07996750 7.09896994
v 15.91830921 43.07996750 6.96082926
v 1.45897424 43.07996750 4.54918623
v 19.52777672 43.07996750 2.96837091
v 27.98153496 38.07996750 9.29534626
v 27.66677856 38.07996750 9.14857197
v 27.42120171 38.07996750 8.90299702
v 27.27442932 38.07996750 8.58823872
v 27.24415970 38.07996750 8.24226475
v 27.33404732 38.07996750 7.90680170
v 27.53324699 38.07996750 7.62231350
v 27.81773567 38.07996750 7.42311239
v 25.56688690 25.37996864 2.44001722
v 25.56688690 38.07996750 2.44001722
v 23.57449722 23.37996864 2.61432886
v 11.42092133 23.37996864 3.67762876
v 8.90191460 50.57996750 10.35744190
v 8.93908215 50.57996750 10.01806259
v 8.84354687 50.57996750 9.69029427
v 8.62985134 50.57996750 9.42403507
v 8.33052921 50.57996750 9.25982189
v 7.99115086 50.57996750 9.22265339
v 7.66338205 50.57996750 9.31818962
v 7.39712334 50.57996750 9.53188515
v 7.23290968 50.57996750 9.83120632
v 7.19574165 50.57996750 10.17058563
v 7.29127741 50.57996750 10.49835396
v 7.50497293 50.57996750 10.76461315
v 7.80429459 50.57996750 10.92882633
v 8.14367294 50.57996750 10.96599388
v 8.47144222 50.57996750 10.87045860
v 8.73770046 50.57996750 10.65676308
v 10.44051838 50.57996750 9.30796242
v 10.55789852 50.57996750 9.87643433
v 10.54101562 50.57996750 10.45665359
v 10.39078045 50.57996750 11.01733971
v 10.19520378 50.57996750 8.78188229
v 9.83517933 50.57996750 8.32655716
v 9.37985325 50.57996750 7.96653223
v 8.85377407 50.57996750 7.72121716
v 8.28530121 50.57996750 7.60383701
v 7.70508242 50.57996750 7.62071991
v 7.14439678 50.57996750 7.77095509
v 6.63347101 50.57996750 8.04644394
v 6.19984913 50.57996750 8.43233395
v 5.86690855 50.57996750 8.90782261
v 5.65259743 50.57996750 9.44727612
v 5.56846952 50.57996750 10.02161217
v 5.61906052 50.57996750 10.59986782
v 5.80164242 50.57996750 11.15086937
v 6.10637283 50.57996750 11.64491272
v 6.51682329 50.57996750 12.05536270
v 7.01086617 50.57996750 12.36009312
v 7.56186819 50.57996750 12.54267502
v 8.14012337 50.57996750 12.59326649
v 8.71445942 50.57996750 12.50913811
v 9.25391293 50.57996750 12.29482746
v 9.72940159 50.57996750 11.96188641
v 10.11529255 50.57996750 11.52826500
v 0.19433536 29.15396881 13.04172325
v 0.19433536 30.65396881 13.04172325
v -0.19786549 29.15396881 8.55884743
v -0.19786549 30.65396881 8.55884743
f 1 2 3
f 3 2 4
f 3 4 5
f 1 6 2
f 7 8 5
f 5 8 9
f 5 9 3
f 3 9 10
f 3 10 11
f 8 12 9
f 9 12 13
f 14 15 11
f 11 15 3
f 16 17 18
f 18 17 19
f 18 19 9
f 9 19 10
f 10 19 20
f 10 20 16
f 16 20 21
f 16 21 17
f 22 23 24
f 24 23 25
f 24 25 26
f 26 27 24
f 24 27 28
f 24 28 29
f 24 29 30
f 30 29 31
f 30 31 32
f 32 33 30
f 30 33 34
f 30 34 35
f 35 36 30
f 30 37 24
f 24 37 38
f 38 37 39
f 38 39 40
f 41 42 37
f 37 42 43
f 37 43 44
f 42 41 45
f 45 41 46
f 45 46 47
f 45 47 48
f 48 47 49
f 48 49 50
f 50 49 51
f 50 51 52
f 52 53 50
f 50 53 54
f 54 53 55
f 54 55 56
f 56 57 54
f 54 57 58
f 58 57 59
f 58 59 60
f 58 60 61
f 61 60 62
f 61 62 63
f 63 62 64
f 63 64 65
f 63 65 66
f 66 65 67
f 66 67 68
f 68 67 69
f 68 69 70
f 70 69 71
f 70 71 72
f 72 71 73
f 72 73 74
f 74 73 75
f 74 75 76
f 76 75 77
f 76 77 78
f 78 77 79
f 78 79 80
f 78 80 81
f 81 80 82
f 81 82 83
f 83 82 84
f 83 84 85
f 83 85 86
f 86 85 87
f 86 87 88
f 88 89 86
f 86 89 90
f 90 89 91
f 90 91 92
f 92 93 90
f 90 93 94
f 94 93 95
f 94 95 96
f 96 95 97
f 96 97 98
f 96 98 99
f 99 98 38
f 99 38 100
f 100 38 40
f 44 39 37
f 101 102 103
f 103 102 104
f 103 104 105
f 105 104 106
f 105 106 107
f 107 106 108
f 107 108 109
f 109 108 110
f 109 110 111
f 102 101 112
f 112 101 113
f 112 113 114
f 114 113 115
f 114 115 116
f 117 118 119
f 119 118 120
f 121 122 123
f 123 122 124
f 125 126 127
f 127 126 128
f 129 130 131
f 131 130 132
f 118 117 6
f 6 117 2
f 2 117 133
f 2 133 134
f 134 135 2
f 2 135 136
f 2 136 137
f 137 136 138
f 137 138 139
f 139 140 137
f 137 140 141
f 137 141 122
f 121 142 122
f 122 142 137
f 121 123 142
f 142 123 143
f 129 131 12
f 12 131 13
f 127 128 144
f 144 128 145
f 145 128 146
f 145 146 147
f 147 148 145
f 145 148 149
f 145 149 150
f 145 150 8
f 8 150 151
f 8 151 152
f 152 153 8
f 8 153 130
f 8 130 12
f 12 130 129
f 125 154 126
f 126 154 18
f 126 18 155
f 155 18 156
f 156 18 157
f 157 18 158
f 158 18 159
f 159 18 9
f 159 9 160
f 160 9 161
f 161 9 162
f 162 9 132
f 132 9 13
f 132 13 131
f 163 164 38
f 38 164 24
f 165 166 37
f 37 166 41
f 41 166 167
f 41 167 46
f 46 167 168
f 46 168 47
f 47 168 169
f 47 169 49
f 49 169 170
f 49 170 51
f 51 170 171
f 51 171 52
f 52 171 172
f 52 172 53
f 53 172 173
f 53 173 55
f 55 173 174
f 55 174 56
f 56 174 175
f 56 175 57
f 57 175 176
f 57 176 59
f 59 176 177
f 59 177 60
f 60 177 178
f 60 178 62
f 62 178 179
f 62 179 64
f 64 179 180
f 64 180 65
f 65 180 181
f 65 181 67
f 67 181 182
f 67 182 69
f 69 182 183
f 69 183 71
f 71 183 184
f 71 184 185
f 71 185 73
f 73 185 186
f 73 186 75
f 75 186 187
f 75 187 77
f 77 187 188
f 77 188 79
f 79 188 189
f 79 189 80
f 80 189 190
f 80 190 82
f 82 190 191
f 82 191 84
f 84 191 192
f 84 192 85
f 85 192 193
f 85 193 87
f 87 193 194
f 87 194 88
f 88 194 5
f 88 5 89
f 89 5 195
f 89 195 91
f 91 195 196
f 91 196 92
f 92 196 197
f 92 197 93
f 93 197 198
f 93 198 95
f 95 198 199
f 95 199 97
f 97 199 200
f 97 200 98
f 98 200 201
f 98 201 38
f 38 201 163
f 202 165 30
f 30 165 37
f 24 164 22
f 22 164 203
f 22 203 204
f 22 204 23
f 23 204 205
f 23 205 25
f 25 205 206
f 25 206 26
f 26 206 207
f 26 207 27
f 27 207 208
f 27 208 28
f 28 208 209
f 28 209 29
f 29 209 210
f 29 210 31
f 31 210 211
f 31 211 32
f 32 211 212
f 32 212 33
f 33 212 213
f 33 213 34
f 34 213 214
f 34 214 35
f 35 214 215
f 35 215 36
f 36 215 30
f 30 215 202
f 5 194 7
f 7 194 193
f 7 193 192
f 192 191 7
f 7 191 190
f 7 190 189
f 189 188 7
f 7 188 187
f 7 187 186
f 186 185 7
f 7 185 184
f 184 183 216
f 216 183 182
f 216 182 181
f 181 180 216
f 216 180 179
f 216 179 178
f 178 177 216
f 216 177 176
f 216 176 175
f 175 174 216
f 216 174 173
f 173 172 217
f 217 172 171
f 217 171 170
f 170 169 217
f 217 169 168
f 217 168 167
f 217 167 202
f 202 167 166
f 202 166 165
f 202 215 217
f 217 215 214
f 217 214 213
f 213 212 217
f 217 212 211
f 217 211 210
f 210 209 217
f 217 209 4
f 4 209 208
f 4 208 207
f 207 206 4
f 4 206 205
f 4 205 204
f 204 203 4
f 4 203 164
f 4 164 200
f 200 164 201
f 201 164 163
f 200 199 4
f 4 199 198
f 4 198 197
f 197 196 4
f 4 196 195
f 4 195 5
f 117 119 133
f 133 119 218
f 133 218 134
f 134 218 219
f 134 219 135
f 135 219 220
f 135 220 136
f 136 220 221
f 136 221 138
f 138 221 222
f 138 222 139
f 139 222 223
f 139 223 140
f 140 223 224
f 140 224 141
f 141 224 225
f 141 225 122
f 122 225 124
f 128 126 146
f 146 126 155
f 146 155 147
f 147 155 156
f 147 156 148
f 148 156 157
f 148 157 149
f 149 157 158
f 149 158 150
f 150 158 159
f 150 159 151
f 151 159 160
f 151 160 152
f 152 160 161
f 152 161 153
f 153 161 162
f 153 162 130
f 130 162 132
f 226 227 15
f 15 227 3
f 228 226 14
f 14 226 15
f 229 228 11
f 11 228 14
f 16 229 10
f 10 229 11
f 125 127 154
f 154 127 144
f 216 145 184
f 184 145 8
f 184 8 7
f 137 217 2
f 2 217 4
f 120 118 1
f 1 118 6
f 120 1 119
f 119 1 3
f 119 3 218
f 218 3 219
f 219 3 220
f 220 3 221
f 221 3 227
f 221 227 222
f 222 227 223
f 223 227 224
f 224 227 225
f 225 227 124
f 124 227 143
f 124 143 123
f 142 143 137
f 137 143 227
f 137 227 217
f 217 227 173
f 173 227 18
f 173 18 145
f 145 18 144
f 144 18 154
f 226 229 227
f 227 229 16
f 227 16 18
f 226 228 229
f 145 216 173
f 105 230 103
f 103 230 231
f 103 231 101
f 101 231 232
f 101 232 113
f 113 232 233
f 113 233 115
f 115 233 234
f 115 234 116
f 116 234 235
f 116 235 114
f 114 235 236
f 114 236 112
f 112 236 237
f 112 237 102
f 102 237 238
f 102 238 104
f 104 238 239
f 104 239 106
f 106 239 240
f 106 240 108
f 108 240 241
f 108 241 110
f 110 241 242
f 110 242 111
f 111 242 243
f 111 243 109
f 109 243 244
f 109 244 107
f 107 244 245
f 107 245 105
f 105 245 230
f 44 246 39
f 39 246 247
f 39 247 40
f 40 247 248
f 40 248 249
f 44 43 246
f 246 43 250
f 250 43 42
f 250 42 251
f 251 42 45
f 251 45 252
f 252 45 48
f 252 48 253
f 253 48 50
f 253 50 254
f 254 50 54
f 254 54 255
f 255 54 58
f 255 58 256
f 256 58 61
f 256 61 257
f 257 61 63
f 257 63 258
f 258 63 66
f 258 66 259
f 259 66 68
f 259 68 260
f 260 68 70
f 260 70 261
f 261 70 72
f 261 72 262
f 262 72 74
f 262 74 263
f 263 74 76
f 263 76 264
f 264 76 78
f 264 78 265
f 265 78 81
f 265 81 266
f 266 81 83
f 266 83 267
f 267 83 86
f 267 86 268
f 268 86 90
f 268 90 269
f 269 90 94
f 269 94 270
f 270 94 96
f 270 96 271
f 271 96 99
f 271 99 272
f 272 99 100
f 272 100 249
f 249 100 40
f 248 247 231
f 231 247 246
f 231 246 232
f 232 246 250
f 232 250 251
f 232 251 233
f 233 251 252
f 233 252 234
f 234 252 253
f 234 253 254
f 234 254 235
f 235 254 255
f 235 255 256
f 235 256 236
f 236 256 257
f 236 257 237
f 237 257 258
f 237 258 259
f 237 259 238
f 238 259 260
f 238 260 261
f 238 261 239
f 239 261 262
f 239 262 240
f 240 262 263
f 240 263 264
f 240 264 241
f 241 264 265
f 241 265 266
f 241 266 242
f 242 266 267
f 242 267 243
f 243 267 268
f 243 268 269
f 243 269 244
f 244 269 270
f 244 270 271
f 244 271 245
f 245 271 272
f 245 272 230
f 230 272 249
f 230 249 248
f 230 248 231
f 273 20 274
f 274 20 19
f 275 273 276
f 276 273 274
f 21 275 17
f 17 275 276
f 275 21 273
f 273 21 20
f 17 276 19
f 19 276 274

