# https://github.com/mikedh/trimesh

o servo_rfs_1.stl
v 60.83275604 -36.00000000 24.23275566
v 58.90775681 -28.57399940 20.89855766
v 60.83275604 -27.07350349 24.23275566
v 58.90775681 -27.07399940 20.89855766
v 56.65775681 -27.07399940 17.00144196
v 56.65775681 -28.57399940 17.00144196
v 54.73275375 -36.00000000 13.66724491
v 54.73275375 -27.07350349 13.66724491
v 32.73093414 -37.50000000 32.25897598
v 30.18093491 -37.50000000 27.84224510
v 34.46298599 -37.50000000 31.25897408
v 33.77494049 -37.50000000 25.76724434
v 34.83245850 -37.50000000 31.13355446
v 35.22180557 -37.50000000 31.15907478
v 35.57174683 -37.50000000 31.33164597
v 35.82901001 -37.50000000 31.62500000
v 39.87493896 -37.50000000 36.33275604
v 35.95442963 -37.50000000 31.99447441
v 35.92891312 -37.50000000 32.38381958
v 35.75634003 -37.50000000 32.73376083
v 35.46298599 -37.50000000 32.99102402
v 36.28093338 -37.50000000 38.40775681
v 33.73093414 -37.50000000 33.99102402
v 46.66759872 -44.50000000 28.17020607
v 46.07271957 -44.50000000 28.26688385
v 47.22205353 -44.50000000 27.93397522
v 45.47198868 -44.50000000 28.21838760
v 44.90032196 -44.50000000 28.02753639
v 44.39094162 -44.50000000 27.70542336
v 43.97344589 -44.50000000 27.27076721
v 46.43128586 -44.50000000 22.61702156
v 43.67210770 -44.50000000 26.74882698
v 44.72205353 -44.50000000 23.60384750
v 43.50442886 -44.50000000 26.16993904
v 43.48015976 -44.50000000 25.56774521
v 43.60071182 -44.50000000 24.97724152
v 43.85907745 -44.50000000 24.43274689
v 44.24024200 -44.50000000 23.96590424
v 46.41048431 -44.50000000 21.64252853
v 50.06605148 -44.50000000 21.42912292
v 50.00054932 -44.50000000 22.05235672
v 50.09209442 -44.50000000 22.67230034
v 50.28449249 -44.50000000 20.84176064
v 46.54516220 -44.50000000 20.67716217
v 46.83188248 -44.50000000 19.74557114
v 50.64213943 -44.50000000 20.32717323
v 47.26332474 -44.50000000 18.87154198
v 47.82847595 -44.50000000 18.07739067
v 51.11651993 -44.50000000 19.91769600
v 48.51290131 -44.50000000 17.38339424
v 49.29912949 -44.50000000 16.80727196
v 50.16708374 -44.50000000 16.36373329
v 51.67783356 -44.50000000 19.63905907
v 51.09460068 -44.50000000 16.06410408
v 52.05800629 -44.50000000 15.91603374
v 52.29080582 -44.50000000 19.50876808
v 53.03269196 -44.50000000 15.92330360
v 53.99378204 -44.50000000 16.08572769
v 52.91692352 -44.50000000 19.53500938
v 54.91672897 -44.50000000 16.39915848
v 55.77796936 -44.50000000 16.85559273
v 53.51684189 -44.50000000 19.71613693
v 56.55551529 -44.50000000 17.44337845
v 54.05286789 -44.50000000 20.04076576
v 57.22951508 -44.50000000 18.14750671
v 54.49132538 -44.50000000 20.48850250
v 57.78275681 -44.50000000 18.95000076
v 54.80465698 -44.50000000 21.03121185
v 58.20111465 -44.50000000 19.83036804
v 54.97318268 -44.50000000 21.63479233
v 58.47390747 -44.50000000 20.76613045
v 54.98630524 -44.50000000 22.26132202
v 58.59416962 -44.50000000 21.73339844
v 54.84320450 -44.50000000 22.87142944
v 58.55883408 -44.50000000 22.70747375
v 58.36880112 -44.50000000 23.66348457
v 54.55287170 -44.50000000 23.42678452
v 58.02891922 -44.50000000 24.57702255
v 57.54787064 -44.50000000 25.42476273
v 54.13355255 -44.50000000 23.89248848
v 56.93793869 -44.50000000 26.18505859
v 56.21469116 -44.50000000 26.83849907
v 53.61158752 -44.50000000 24.23927879
v 55.39659882 -44.50000000 27.36840057
v 54.50454712 -44.50000000 27.76123047
v 53.56131744 -44.50000000 28.00696373
v 53.01977921 -44.50000000 24.44536972
v 52.59098816 -44.50000000 28.09932137
v 51.61833191 -44.50000000 28.03594780
v 52.39530945 -44.50000000 24.49780655
v 50.66819000 -44.50000000 27.81846046
v 49.76482010 -44.50000000 27.45241165
v 51.77742004 -44.50000000 24.39329910
v 48.93128586 -44.50000000 26.94714928
v 51.20493317 -44.50000000 24.13841057
v 50.71381760 -44.50000000 23.74915886
v 50.33493805 -44.50000000 23.25000000
v 51.74222946 -44.50000000 22.43750000
v 51.62979507 -44.50000000 22.09146309
v 51.98568726 -44.50000000 22.70788956
v 51.66782379 -44.50000000 21.72961044
v 52.31807709 -44.50000000 22.85587883
v 51.84974670 -44.50000000 21.41451073
v 52.68192291 -44.50000000 22.85587883
v 52.14410400 -44.50000000 21.20064735
v 53.01431274 -44.50000000 22.70788956
v 52.50000000 -44.50000000 21.12500000
v 53.25777054 -44.50000000 22.43750000
v 52.85589600 -44.50000000 21.20064735
v 53.37020493 -44.50000000 22.09146309
v 53.15025330 -44.50000000 21.41451073
v 53.33217621 -44.50000000 21.72961044
v 32.73093414 -36.00000000 32.25897598
v 34.46298599 -36.00000000 31.25897408
v 35.46298599 -36.00000000 32.99102402
v 33.73093414 -36.00000000 33.99102402
v 60.14471054 -36.00000000 18.74102592
v 61.87675858 -36.00000000 17.74102592
v 60.14471054 -37.50000000 18.74102592
v 61.87675858 -37.50000000 17.74102592
v 59.14471054 -37.50000000 17.00897408
v 60.87675858 -37.50000000 16.00897408
v 59.14471054 -36.00000000 17.00897408
v 60.87675858 -36.00000000 16.00897408
v 36.28093338 -36.00000000 38.40775681
v 58.32675934 -36.00000000 11.59224510
v 58.32675934 -37.50000000 11.59224510
v 64.42675781 -37.50000000 22.15775490
v 60.83275604 -37.50000000 24.23275566
v 59.77523422 -37.50000000 18.86644554
v 59.38589096 -37.50000000 18.84092522
v 59.03594971 -37.50000000 18.66835403
v 58.77868271 -37.50000000 18.37500000
v 54.73275375 -37.50000000 13.66724491
v 58.65326309 -37.50000000 18.00552559
v 58.67878342 -37.50000000 17.61618042
v 58.85135651 -37.50000000 17.26623917
v 64.42675781 -36.00000000 22.15775490
v 59.77523422 -36.00000000 18.86644554
v 59.38589096 -36.00000000 18.84092522
v 59.03594971 -36.00000000 18.66835403
v 58.77868271 -36.00000000 18.37500000
v 58.65326309 -36.00000000 18.00552559
v 58.67878342 -36.00000000 17.61618042
v 58.85135651 -36.00000000 17.26623917
v 44.72205353 -41.00000000 23.60384750
v 46.43128586 -41.00000000 22.61702156
v 54.76280594 -41.00000000 27.66477776
v 55.54999924 -41.00000000 27.28275490
v 56.33885574 -41.00000000 26.74059105
v 57.03318405 -41.00000000 26.08169746
v 57.61589050 -41.00000000 25.32229805
v 58.07262802 -41.00000000 24.48109436
v 58.39214706 -41.00000000 23.57879639
v 58.56658173 -41.00000000 22.63762283
v 58.59164047 -41.00000000 21.68074989
v 58.46670151 -41.00000000 20.73173904
v 58.19483948 -41.00000000 19.81395531
v 57.78275681 -41.00000000 18.95000076
v 57.24058914 -41.00000000 18.16114616
v 56.58169556 -41.00000000 17.46681595
v 55.82229996 -41.00000000 16.88410950
v 54.98109436 -41.00000000 16.42737198
v 54.07879639 -41.00000000 16.10785294
v 53.13762283 -41.00000000 15.93341637
v 52.18075180 -41.00000000 15.90835953
v 51.23173904 -41.00000000 16.03330040
v 50.31395721 -41.00000000 16.30515862
v 49.45000076 -41.00000000 16.71724510
v 48.72555923 -41.00000000 17.20796394
v 48.07878113 -41.00000000 17.79728317
v 47.52297211 -41.00000000 18.47307396
v 47.06956863 -41.00000000 19.22143555
v 46.72790146 -41.00000000 20.02696609
v 46.50499344 -41.00000000 20.87309265
v 46.40544128 -41.00000000 21.74240685
v 53.92905045 -41.00000000 27.93024635
v 53.06589508 -41.00000000 28.07369423
v 52.19109344 -41.00000000 28.09217262
v 51.32264709 -41.00000000 27.98530197
v 50.47842789 -41.00000000 27.75527954
v 49.67580032 -41.00000000 27.40683937
v 48.93128586 -41.00000000 26.94714928
v 47.22205353 -41.00000000 27.93397522
v 46.66759872 -41.00000000 28.17020607
v 46.07271957 -41.00000000 28.26688385
v 45.47198868 -41.00000000 28.21838760
v 44.90032196 -41.00000000 28.02753639
v 44.39094162 -41.00000000 27.70542336
v 43.97344589 -41.00000000 27.27076721
v 43.67210770 -41.00000000 26.74882698
v 43.50442886 -41.00000000 26.16993904
v 43.48015976 -41.00000000 25.56774521
v 43.60071182 -41.00000000 24.97724152
v 43.85907745 -41.00000000 24.43274689
v 44.24024200 -41.00000000 23.96590424
v 54.73275375 -41.00000000 13.66724491
v 60.83275604 -41.00000000 24.23275566
v 45.12493896 -41.00000000 33.30166626
v 39.02494049 -41.00000000 22.73615646
v 34.83245850 -36.00000000 31.13355446
v 35.22180557 -36.00000000 31.15907478
v 35.57174683 -36.00000000 31.33164597
v 35.82901001 -36.00000000 31.62500000
v 35.95442963 -36.00000000 31.99447441
v 35.92891312 -36.00000000 32.38381958
v 35.75634003 -36.00000000 32.73376083
v 39.87493896 -36.00000000 36.33275604
v 39.87493896 -23.29999924 36.33275604
v 33.77494049 -36.00000000 25.76724434
v 33.77494049 -23.29999924 25.76724434
v 41.60699081 -21.29999924 35.33275604
v 35.50699234 -21.29999924 24.76724434
v 52.17250061 -21.29999924 29.23275566
v 46.07250214 -21.29999924 18.66724586
v 30.18093491 -36.00000000 27.84224510
v 51.98568726 -48.50000000 22.70788956
v 51.74222946 -48.50000000 22.43750000
v 51.62979507 -48.50000000 22.09146309
v 51.66782379 -48.50000000 21.72961044
v 51.84974670 -48.50000000 21.41451073
v 52.14410400 -48.50000000 21.20064735
v 52.50000000 -48.50000000 21.12500000
v 52.85589600 -48.50000000 21.20064735
v 53.15025330 -48.50000000 21.41451073
v 53.33217621 -48.50000000 21.72961044
v 53.37020493 -48.50000000 22.09146309
v 53.25777054 -48.50000000 22.43750000
v 53.01431274 -48.50000000 22.70788956
v 52.68192291 -48.50000000 22.85587883
v 52.31807709 -48.50000000 22.85587883
v 50.09209442 -48.50000000 22.67230034
v 50.33493805 -48.50000000 23.25000000
v 50.71381760 -48.50000000 23.74915886
v 51.20493317 -48.50000000 24.13841057
v 51.77742004 -48.50000000 24.39329910
v 52.39530945 -48.50000000 24.49780655
v 53.01977921 -48.50000000 24.44536972
v 53.61158752 -48.50000000 24.23927879
v 54.13355255 -48.50000000 23.89248848
v 54.55287170 -48.50000000 23.42678452
v 54.84320450 -48.50000000 22.87142944
v 54.98630524 -48.50000000 22.26132202
v 54.97318268 -48.50000000 21.63479233
v 54.80465698 -48.50000000 21.03121185
v 54.49132538 -48.50000000 20.48850250
v 54.05286789 -48.50000000 20.04076576
v 53.51684189 -48.50000000 19.71613693
v 52.91692352 -48.50000000 19.53500938
v 52.29080582 -48.50000000 19.50876808
v 51.67783356 -48.50000000 19.63905907
v 51.11651993 -48.50000000 19.91769600
v 50.64213943 -48.50000000 20.32717323
v 50.28449249 -48.50000000 20.84176064
v 50.06605148 -48.50000000 21.42912292
v 50.00054932 -48.50000000 22.05235672
v 58.38980484 -27.07399940 16.00144196
v 58.38980484 -28.57399940 16.00144196
v 60.63980484 -27.07399940 19.89855766
v 60.63980484 -28.57399940 19.89855766
f 1 2 3
f 3 2 4
f 3 4 5
f 2 1 6
f 6 1 7
f 6 7 8
f 6 8 5
f 5 8 3
f 9 10 11
f 11 10 12
f 11 12 13
f 13 12 14
f 14 12 15
f 15 12 16
f 16 12 17
f 16 17 18
f 18 17 19
f 19 17 20
f 20 17 21
f 21 17 22
f 21 22 23
f 24 25 26
f 26 25 27
f 26 27 28
f 28 29 26
f 26 29 30
f 26 30 31
f 31 30 32
f 31 32 33
f 33 32 34
f 33 34 35
f 35 36 33
f 33 36 37
f 33 37 38
f 39 40 31
f 31 40 41
f 31 41 42
f 40 39 43
f 43 39 44
f 43 44 45
f 43 45 46
f 46 45 47
f 46 47 48
f 46 48 49
f 49 48 50
f 49 50 51
f 51 52 49
f 49 52 53
f 53 52 54
f 53 54 55
f 53 55 56
f 56 55 57
f 56 57 58
f 56 58 59
f 59 58 60
f 59 60 61
f 59 61 62
f 62 61 63
f 62 63 64
f 64 63 65
f 64 65 66
f 66 65 67
f 66 67 68
f 68 67 69
f 68 69 70
f 70 69 71
f 70 71 72
f 72 71 73
f 72 73 74
f 74 73 75
f 74 75 76
f 74 76 77
f 77 76 78
f 77 78 79
f 77 79 80
f 80 79 81
f 80 81 82
f 80 82 83
f 83 82 84
f 83 84 85
f 85 86 83
f 83 86 87
f 87 86 88
f 87 88 89
f 87 89 90
f 90 89 91
f 90 91 92
f 90 92 93
f 93 92 94
f 93 94 95
f 95 94 96
f 96 94 97
f 97 94 31
f 97 31 42
f 94 26 31
f 98 99 100
f 100 99 101
f 100 101 102
f 102 101 103
f 102 103 104
f 104 103 105
f 104 105 106
f 106 105 107
f 106 107 108
f 108 107 109
f 108 109 110
f 110 109 111
f 110 111 112
f 9 11 113
f 113 11 114
f 21 23 115
f 115 23 116
f 117 118 119
f 119 118 120
f 121 122 123
f 123 122 124
f 116 23 125
f 125 23 22
f 124 122 126
f 126 122 127
f 120 128 119
f 119 128 129
f 119 129 130
f 130 129 131
f 131 129 132
f 132 129 133
f 133 129 134
f 133 134 135
f 135 134 136
f 136 134 137
f 137 134 121
f 121 134 127
f 121 127 122
f 118 117 138
f 138 117 1
f 1 117 139
f 1 139 140
f 140 141 1
f 1 141 142
f 1 142 7
f 7 142 143
f 7 143 144
f 144 145 7
f 7 145 123
f 7 123 126
f 126 123 124
f 146 147 33
f 33 147 31
f 148 84 149
f 149 84 82
f 149 82 150
f 150 82 81
f 150 81 151
f 151 81 79
f 151 79 152
f 152 79 78
f 152 78 153
f 153 78 76
f 153 76 154
f 154 76 75
f 154 75 155
f 155 75 73
f 155 73 156
f 156 73 71
f 156 71 157
f 157 71 69
f 157 69 158
f 158 69 67
f 158 67 159
f 159 67 160
f 160 67 65
f 160 65 161
f 161 65 63
f 161 63 162
f 162 63 61
f 162 61 163
f 163 61 60
f 163 60 164
f 164 60 58
f 164 58 165
f 165 58 57
f 165 57 166
f 166 57 55
f 166 55 167
f 167 55 54
f 167 54 168
f 168 54 52
f 168 52 169
f 169 52 51
f 169 51 170
f 170 51 50
f 170 50 171
f 171 50 48
f 171 48 172
f 172 48 47
f 172 47 173
f 173 47 45
f 173 45 174
f 174 45 44
f 174 44 175
f 175 44 39
f 175 39 176
f 176 39 31
f 176 31 147
f 84 148 85
f 85 148 177
f 85 177 86
f 86 177 178
f 86 178 88
f 88 178 179
f 88 179 89
f 89 179 180
f 89 180 91
f 91 180 181
f 91 181 92
f 92 181 182
f 92 182 94
f 94 182 183
f 183 184 94
f 94 184 26
f 26 184 24
f 24 184 185
f 24 185 25
f 25 185 186
f 25 186 27
f 27 186 187
f 27 187 28
f 28 187 188
f 28 188 29
f 29 188 189
f 29 189 30
f 30 189 190
f 30 190 32
f 32 190 191
f 32 191 34
f 34 191 192
f 34 192 35
f 35 192 193
f 35 193 36
f 36 193 194
f 36 194 37
f 37 194 195
f 37 195 38
f 38 195 196
f 38 196 33
f 33 196 146
f 159 160 197
f 197 160 161
f 197 161 162
f 162 163 197
f 197 163 164
f 197 164 165
f 165 166 197
f 197 166 167
f 197 167 168
f 168 169 197
f 149 150 198
f 198 150 151
f 198 151 152
f 152 153 198
f 198 153 154
f 198 154 155
f 155 156 198
f 198 156 157
f 198 157 158
f 158 159 198
f 183 182 184
f 184 182 181
f 184 181 199
f 199 181 180
f 199 180 179
f 179 178 199
f 199 178 177
f 199 177 148
f 148 149 199
f 200 191 199
f 199 191 190
f 199 190 189
f 169 170 200
f 200 170 171
f 200 171 172
f 172 173 200
f 200 173 174
f 200 174 175
f 200 175 146
f 146 175 176
f 146 176 147
f 146 196 200
f 200 196 195
f 200 195 194
f 194 193 200
f 200 193 192
f 200 192 191
f 189 188 199
f 199 188 187
f 199 187 186
f 186 185 199
f 199 185 184
f 114 11 201
f 201 11 13
f 201 13 202
f 202 13 14
f 202 14 203
f 203 14 15
f 203 15 204
f 204 15 16
f 204 16 205
f 205 16 18
f 205 18 206
f 206 18 19
f 206 19 207
f 207 19 20
f 207 20 115
f 115 20 21
f 117 119 139
f 139 119 130
f 139 130 140
f 140 130 131
f 140 131 141
f 141 131 132
f 141 132 142
f 142 132 133
f 142 133 143
f 143 133 135
f 143 135 144
f 144 135 136
f 144 136 145
f 145 136 137
f 145 137 123
f 123 137 121
f 208 209 210
f 210 209 211
f 209 212 211
f 211 212 213
f 212 214 213
f 213 214 215
f 214 3 215
f 215 3 8
f 120 118 128
f 128 118 138
f 198 159 129
f 129 159 134
f 134 159 197
f 199 17 200
f 200 17 12
f 9 113 10
f 10 113 216
f 113 114 216
f 216 114 210
f 210 114 201
f 210 201 202
f 202 203 210
f 210 203 204
f 210 204 208
f 208 204 205
f 208 205 206
f 206 207 208
f 208 207 115
f 208 115 125
f 125 115 116
f 216 210 10
f 10 210 12
f 12 210 200
f 200 210 169
f 169 210 7
f 169 7 134
f 134 7 126
f 134 126 127
f 211 215 210
f 210 215 8
f 210 8 7
f 211 213 215
f 134 197 169
f 125 22 208
f 208 22 17
f 208 17 199
f 199 149 208
f 208 149 1
f 208 1 3
f 198 129 149
f 149 129 1
f 128 138 129
f 129 138 1
f 3 214 208
f 208 214 209
f 209 214 212
f 100 217 98
f 98 217 218
f 98 218 99
f 99 218 219
f 99 219 101
f 101 219 220
f 101 220 103
f 103 220 221
f 103 221 105
f 105 221 222
f 105 222 107
f 107 222 223
f 107 223 109
f 109 223 224
f 109 224 111
f 111 224 225
f 111 225 112
f 112 225 226
f 112 226 110
f 110 226 227
f 110 227 108
f 108 227 228
f 108 228 106
f 106 228 229
f 106 229 104
f 104 229 230
f 104 230 102
f 102 230 231
f 102 231 100
f 100 231 217
f 42 232 97
f 97 232 233
f 97 233 96
f 96 233 234
f 96 234 95
f 95 234 235
f 95 235 93
f 93 235 236
f 93 236 90
f 90 236 237
f 90 237 87
f 87 237 238
f 87 238 83
f 83 238 239
f 83 239 80
f 80 239 240
f 80 240 77
f 77 240 241
f 77 241 74
f 74 241 242
f 74 242 72
f 72 242 243
f 72 243 70
f 70 243 244
f 70 244 68
f 68 244 245
f 68 245 66
f 66 245 246
f 66 246 64
f 64 246 247
f 64 247 62
f 62 247 248
f 62 248 59
f 59 248 249
f 59 249 56
f 56 249 250
f 56 250 53
f 53 250 251
f 53 251 49
f 49 251 252
f 49 252 46
f 46 252 253
f 46 253 43
f 43 253 254
f 43 254 40
f 40 254 255
f 40 255 41
f 41 255 256
f 41 256 42
f 42 256 232
f 234 233 218
f 218 233 232
f 218 232 219
f 219 232 256
f 219 256 255
f 219 255 220
f 220 255 254
f 220 254 221
f 221 254 253
f 221 253 252
f 221 252 222
f 222 252 251
f 222 251 223
f 223 251 250
f 223 250 249
f 223 249 224
f 224 249 248
f 224 248 247
f 224 247 225
f 225 247 246
f 225 246 245
f 225 245 226
f 226 245 244
f 226 244 227
f 227 244 243
f 227 243 242
f 227 242 228
f 228 242 241
f 228 241 240
f 228 240 229
f 229 240 239
f 229 239 230
f 230 239 238
f 230 238 237
f 230 237 231
f 231 237 236
f 231 236 217
f 217 236 235
f 217 235 234
f 217 234 218
f 5 257 6
f 6 257 258
f 257 259 258
f 258 259 260
f 259 4 260
f 260 4 2
f 4 259 5
f 5 259 257
f 260 2 258
f 258 2 6

