# https://github.com/mikedh/trimesh

o servos_rf_1.stl
v 1.45897424 -38.07996750 4.54918623
v 1.79452395 -30.65396881 8.38453579
v 1.45897424 -29.15347099 4.54918623
v 1.79452395 -29.15396881 8.38453579
v 2.18672466 -29.15396881 12.86741161
v 2.18672466 -30.65396881 12.86741161
v 2.52227426 -38.07996750 16.70276070
v 2.52227426 -29.15347099 16.70276070
v 30.76439476 -38.07996750 14.23189640
v 26.63018608 -38.07996750 14.59359264
v 30.76439476 -39.57996750 14.23189640
v 26.63018608 -39.57996750 14.59359264
v 20.59107590 -43.07996750 15.12194633
v 8.59906197 -43.07996750 16.17111206
v 2.52227426 -39.57996750 16.70276070
v -1.61193359 -38.07996750 17.06445885
v -1.61193359 -39.57996750 17.06445885
v 26.63018608 -25.37996864 14.59359264
v 12.48422146 -23.37996864 15.83120441
v 24.63779640 -23.37996864 14.76790428
v 2.52227426 -43.07996750 16.70276070
v 15.91830921 -46.57996750 6.96082926
v 16.46082115 -46.57996750 7.09896994
v 15.35866070 -46.57996750 6.94687271
v 16.95899010 -46.57996750 7.35436678
v 17.38784027 -46.57996750 7.71421337
v 17.72586250 -46.57996750 8.16046619
v 17.95611000 -46.57996750 8.67074776
v 18.06703758 -46.57996750 9.21947002
v 15.79444027 -46.57996750 11.92784595
v 18.05307961 -46.57996750 9.77911854
v 17.91493988 -46.57996750 10.32162952
v 17.65954399 -46.57996750 10.81979942
v 17.29969597 -46.57996750 11.24864864
v 16.85344315 -46.57996750 11.58667183
v 16.34316254 -46.57996750 11.81691933
v 13.82829952 -46.57996750 12.09986115
v 13.39251995 -46.57996750 7.11888790
v 10.55789852 -46.57996750 9.87643433
v 10.44051838 -46.57996750 9.30796242
v 13.46085167 -46.57996750 12.94402790
v 10.11529255 -46.57996750 11.52826500
v 10.39078045 -46.57996750 11.01733971
v 10.54101562 -46.57996750 10.45665359
v 9.72940159 -46.57996750 11.96188641
v 12.97054291 -46.57996750 13.72327805
v 12.36854172 -46.57996750 14.41986275
v 9.25391293 -46.57996750 12.29482746
v 11.66856194 -46.57996750 15.01791191
v 8.71445942 -46.57996750 12.50913811
v 10.88654900 -46.57996750 15.50380325
v 10.04031754 -46.57996750 15.86646748
v 9.14914322 -46.57996750 16.09764481
v 8.14012337 -46.57996750 12.59326649
v 8.23332691 -46.57996750 16.19206619
v 7.31373167 -46.57996750 16.14758492
v 6.41130495 -46.57996750 15.96521091
v 7.56186819 -46.57996750 12.54267502
v 5.54660368 -46.57996750 15.64909935
v 4.73932600 -46.57996750 15.20645142
v 7.01086617 -46.57996750 12.36009312
v 4.00786114 -46.57996750 14.64735031
v 6.51682329 -46.57996750 12.05536270
v 3.36887217 -46.57996750 13.98453236
v 2.83691454 -46.57996750 13.23309708
v 6.10637283 -46.57996750 11.64491272
v 2.42410612 -46.57996750 12.41016102
v 5.80164242 -46.57996750 11.15086937
v 2.13985109 -46.57996750 11.53447056
v 5.61906052 -46.57996750 10.59986782
v 1.99062431 -46.57996750 10.62597370
v 5.56846952 -46.57996750 10.02161217
v 1.97982526 -46.57996750 9.70536709
v 5.65259743 -46.57996750 9.44727612
v 2.10769987 -46.57996750 8.79362011
v 5.86690855 -46.57996750 8.90782261
v 2.37133527 -46.57996750 7.91150236
v 6.19984913 -46.57996750 8.43233395
v 2.76472592 -46.57996750 7.07910919
v 3.27891016 -46.57996750 6.31540203
v 6.63347101 -46.57996750 8.04644394
v 3.90217543 -46.57996750 5.63777781
v 7.14439678 -46.57996750 7.77095509
v 4.62032366 -46.57996750 5.06167221
v 5.41699600 -46.57996750 4.60020924
v 7.70508242 -46.57996750 7.62071991
v 6.27404404 -46.57996750 4.26390123
v 7.17194414 -46.57996750 4.06040812
v 8.09024334 -46.57996750 3.99436665
v 8.28530121 -46.57996750 7.60383701
v 9.00802231 -46.57996750 4.06728029
v 9.90437412 -46.57996750 4.27748871
v 10.75888062 -46.57996750 4.62020350
v 8.85377407 -46.57996750 7.72121716
v 11.55207634 -46.57996750 5.08761692
v 9.37985325 -46.57996750 7.96653223
v 12.26589203 -46.57996750 5.66908169
v 12.88406754 -46.57996750 6.35135269
v 9.83517933 -46.57996750 8.32655716
v 10.19520378 -46.57996750 8.78188229
v 8.90191460 -46.57996750 10.35744190
v 7.29127741 -46.57996750 10.49835396
v 8.93908215 -46.57996750 10.01806259
v 7.19574165 -46.57996750 10.17058563
v 8.84354687 -46.57996750 9.69029427
v 7.23290968 -46.57996750 9.83120632
v 8.62985134 -46.57996750 9.42403507
v 7.39712334 -46.57996750 9.53188515
v 8.33052921 -46.57996750 9.25982189
v 7.66338205 -46.57996750 9.31818962
v 7.99115086 -46.57996750 9.22265339
v 7.50497293 -46.57996750 10.76461315
v 8.73770046 -46.57996750 10.65676308
v 7.80429459 -46.57996750 10.92882633
v 8.47144222 -46.57996750 10.87045860
v 8.14367294 -46.57996750 10.96599388
v 30.31990051 -39.57996750 9.15130329
v 28.32751083 -39.57996750 9.32561493
v 30.31990051 -38.07996750 9.15130329
v 28.32751083 -38.07996750 9.32561493
v 28.15319824 -39.57996750 7.33322525
v 30.14558792 -39.57996750 7.15891409
v 28.15319824 -38.07996750 7.33322525
v 30.14558792 -38.07996750 7.15891409
v -0.23835000 -38.07996750 9.81716442
v -2.23073936 -38.07996750 9.99147606
v -0.23835000 -39.57996750 9.81716442
v -2.23073936 -39.57996750 9.99147606
v -0.06403852 -39.57996750 11.80955315
v -2.05642796 -39.57996750 11.98386478
v -0.06403852 -38.07996750 11.80955315
v -2.05642796 -38.07996750 11.98386478
v 27.98153496 -39.57996750 9.29534626
v 27.66677856 -39.57996750 9.14857197
v 27.42120171 -39.57996750 8.90299702
v 27.27442932 -39.57996750 8.58823872
v 25.56688690 -39.57996750 2.44001722
v 27.24415970 -39.57996750 8.24226475
v 27.33404732 -39.57996750 7.90680170
v 27.53324699 -39.57996750 7.62231350
v 27.81773567 -39.57996750 7.42311239
v 29.70109367 -39.57996750 2.07832098
v 29.70109367 -38.07996750 2.07832098
v -2.67523360 -39.57996750 4.91088247
v 1.45897424 -39.57996750 4.54918623
v 0.10762478 -39.57996750 9.84743309
v 0.42238218 -39.57996750 9.99420643
v 0.66795778 -39.57996750 10.23978233
v 0.81473154 -39.57996750 10.55453968
v 0.84500045 -39.57996750 10.90051460
v 0.75511354 -39.57996750 11.23597717
v 0.55591249 -39.57996750 11.52046585
v 0.27142400 -39.57996750 11.71966648
v -2.67523360 -38.07996750 4.91088247
v 0.10762478 -38.07996750 9.84743309
v 0.42238218 -38.07996750 9.99420643
v 0.66795778 -38.07996750 10.23978233
v 0.81473154 -38.07996750 10.55453968
v 0.84500045 -38.07996750 10.90051460
v 0.75511354 -38.07996750 11.23597717
v 0.55591249 -38.07996750 11.52046585
v 0.27142400 -38.07996750 11.71966648
v 15.79444027 -43.07996750 11.92784595
v 13.82829952 -43.07996750 12.09986115
v 8.41065311 -43.07996750 4.00398874
v 7.53576183 -43.07996750 4.01753616
v 6.67635632 -43.07996750 4.15505075
v 5.84526873 -43.07996750 4.41347218
v 5.05941725 -43.07996750 4.78753901
v 4.33480024 -43.07996750 5.26963663
v 3.68616819 -43.07996750 5.84995079
v 3.12672567 -43.07996750 6.51666880
v 2.66786122 -43.07996750 7.25621700
v 2.31891608 -43.07996750 8.05354118
v 2.08699369 -43.07996750 8.89240932
v 1.97681558 -43.07996750 9.75574589
v 1.99062431 -43.07996750 10.62597370
v 2.12813902 -43.07996750 11.48537922
v 2.38655996 -43.07996750 12.31646729
v 2.76062703 -43.07996750 13.10231876
v 3.24272466 -43.07996750 13.82693577
v 3.82303905 -43.07996750 14.47556782
v 4.48975658 -43.07996750 15.03501034
v 5.22930479 -43.07996750 15.49387455
v 6.02662897 -43.07996750 15.84282017
v 6.86549759 -43.07996750 16.07474136
v 7.72883368 -43.07996750 16.18492126
v 9.46301460 -43.07996750 16.03252983
v 10.29825115 -43.07996750 15.77176666
v 11.08758736 -43.07996750 15.39418602
v 11.81478119 -43.07996750 14.90755844
v 12.46487045 -43.07996750 14.32189465
v 13.02447987 -43.07996750 13.64924622
v 13.48209476 -43.07996750 12.90345383
v 9.27848244 -43.07996750 4.11575317
v 10.12139225 -43.07996750 4.35053015
v 10.92204094 -43.07996750 4.70348978
v 11.66395378 -43.07996750 5.16736841
v 12.33186531 -43.07996750 5.73262262
v 12.91203308 -43.07996750 6.38762140
v 13.39251995 -43.07996750 7.11888790
v 15.35866070 -43.07996750 6.94687271
v 15.91830921 -43.07996750 6.96082926
v 16.46082115 -43.07996750 7.09896994
v 16.95899010 -43.07996750 7.35436678
v 17.38784027 -43.07996750 7.71421337
v 17.72586250 -43.07996750 8.16046619
v 17.95611000 -43.07996750 8.67074776
v 18.06703758 -43.07996750 9.21947002
v 18.05307961 -43.07996750 9.77911854
v 17.91493988 -43.07996750 10.32162952
v 17.65954399 -43.07996750 10.81979942
v 17.29969597 -43.07996750 11.24864864
v 16.85344315 -43.07996750 11.58667183
v 16.34316254 -43.07996750 11.81691933
v 1.45897424 -43.07996750 4.54918623
v 19.52777672 -43.07996750 2.96837091
v 27.98153496 -38.07996750 9.29534626
v 27.66677856 -38.07996750 9.14857197
v 27.42120171 -38.07996750 8.90299702
v 27.27442932 -38.07996750 8.58823872
v 27.24415970 -38.07996750 8.24226475
v 27.33404732 -38.07996750 7.90680170
v 27.53324699 -38.07996750 7.62231350
v 27.81773567 -38.07996750 7.42311239
v 25.56688690 -38.07996750 2.44001722
v 25.56688690 -25.37996864 2.44001722
v 23.57449722 -23.37996864 2.61432886
v 11.42092133 -23.37996864 3.67762876
v 8.84354687 -50.57996750 9.69029427
v 8.93908215 -50.57996750 10.01806259
v 8.90191460 -50.57996750 10.35744190
v 8.73770046 -50.57996750 10.65676308
v 8.47144222 -50.57996750 10.87045860
v 8.14367294 -50.57996750 10.96599388
v 7.80429459 -50.57996750 10.92882633
v 7.50497293 -50.57996750 10.76461315
v 7.29127741 -50.57996750 10.49835396
v 7.19574165 -50.57996750 10.17058563
v 7.23290968 -50.57996750 9.83120632
v 7.39712334 -50.57996750 9.53188515
v 7.66338205 -50.57996750 9.31818962
v 7.99115086 -50.57996750 9.22265339
v 8.33052921 -50.57996750 9.25982189
v 8.62985134 -50.57996750 9.42403507
v 10.54101562 -50.57996750 10.45665359
v 10.55789852 -50.57996750 9.87643433
v 10.44051838 -50.57996750 9.30796242
v 10.19520378 -50.57996750 8.78188229
v 10.39078045 -50.57996750 11.01733971
v 10.11529255 -50.57996750 11.52826500
v 9.72940159 -50.57996750 11.96188641
v 9.25391293 -50.57996750 12.29482746
v 8.71445942 -50.57996750 12.50913811
v 8.14012337 -50.57996750 12.59326649
v 7.56186819 -50.57996750 12.54267502
v 7.01086617 -50.57996750 12.36009312
v 6.51682329 -50.57996750 12.05536270
v 6.10637283 -50.57996750 11.64491272
v 5.80164242 -50.57996750 11.15086937
v 5.61906052 -50.57996750 10.59986782
v 5.56846952 -50.57996750 10.02161217
v 5.65259743 -50.57996750 9.44727612
v 5.86690855 -50.57996750 8.90782261
v 6.19984913 -50.57996750 8.43233395
v 6.63347101 -50.57996750 8.04644394
v 7.14439678 -50.57996750 7.77095509
v 7.70508242 -50.57996750 7.62071991
v 8.28530121 -50.57996750 7.60383701
v 8.85377407 -50.57996750 7.72121716
v 9.37985325 -50.57996750 7.96653223
v 9.83517933 -50.57996750 8.32655716
v 0.19433536 -29.15396881 13.04172325
v 0.19433536 -30.65396881 13.04172325
v -0.19786549 -29.15396881 8.55884743
v -0.19786549 -30.65396881 8.55884743
f 1 2 3
f 3 2 4
f 3 4 5
f 2 1 6
f 6 1 7
f 6 7 8
f 6 8 5
f 5 8 3
f 9 10 11
f 11 10 12
f 12 10 13
f 13 10 14
f 14 10 7
f 14 7 15
f 15 7 16
f 15 16 17
f 18 19 10
f 10 19 8
f 10 8 7
f 18 20 19
f 15 21 14
f 22 23 24
f 24 23 25
f 24 25 26
f 26 27 24
f 24 27 28
f 24 28 29
f 24 29 30
f 30 29 31
f 30 31 32
f 32 33 30
f 30 33 34
f 30 34 35
f 35 36 30
f 30 37 24
f 24 37 38
f 38 37 39
f 38 39 40
f 41 42 37
f 37 42 43
f 37 43 44
f 42 41 45
f 45 41 46
f 45 46 47
f 45 47 48
f 48 47 49
f 48 49 50
f 50 49 51
f 50 51 52
f 52 53 50
f 50 53 54
f 54 53 55
f 54 55 56
f 56 57 54
f 54 57 58
f 58 57 59
f 58 59 60
f 58 60 61
f 61 60 62
f 61 62 63
f 63 62 64
f 63 64 65
f 63 65 66
f 66 65 67
f 66 67 68
f 68 67 69
f 68 69 70
f 70 69 71
f 70 71 72
f 72 71 73
f 72 73 74
f 74 73 75
f 74 75 76
f 76 75 77
f 76 77 78
f 78 77 79
f 78 79 80
f 78 80 81
f 81 80 82
f 81 82 83
f 83 82 84
f 83 84 85
f 83 85 86
f 86 85 87
f 86 87 88
f 88 89 86
f 86 89 90
f 90 89 91
f 90 91 92
f 92 93 90
f 90 93 94
f 94 93 95
f 94 95 96
f 96 95 97
f 96 97 98
f 96 98 99
f 99 98 38
f 99 38 100
f 100 38 40
f 44 39 37
f 101 102 103
f 103 102 104
f 103 104 105
f 105 104 106
f 105 106 107
f 107 106 108
f 107 108 109
f 109 108 110
f 109 110 111
f 102 101 112
f 112 101 113
f 112 113 114
f 114 113 115
f 114 115 116
f 117 118 119
f 119 118 120
f 121 122 123
f 123 122 124
f 125 126 127
f 127 126 128
f 129 130 131
f 131 130 132
f 117 11 118
f 118 11 12
f 118 12 133
f 133 12 134
f 134 12 135
f 135 12 136
f 136 12 137
f 136 137 138
f 138 137 139
f 139 137 140
f 140 137 141
f 141 137 121
f 121 137 142
f 121 142 122
f 124 122 143
f 143 122 142
f 132 130 16
f 16 130 17
f 128 144 127
f 127 144 145
f 127 145 146
f 146 145 147
f 147 145 148
f 148 145 149
f 149 145 150
f 150 145 15
f 150 15 151
f 151 15 152
f 152 15 153
f 153 15 129
f 129 15 17
f 129 17 130
f 126 125 154
f 154 125 1
f 1 125 155
f 1 155 156
f 156 157 1
f 1 157 158
f 1 158 159
f 1 159 7
f 7 159 160
f 7 160 161
f 161 162 7
f 7 162 131
f 7 131 16
f 16 131 132
f 163 164 30
f 30 164 37
f 165 89 166
f 166 89 88
f 166 88 167
f 167 88 87
f 167 87 168
f 168 87 85
f 168 85 169
f 169 85 84
f 169 84 170
f 170 84 82
f 170 82 171
f 171 82 80
f 171 80 172
f 172 80 79
f 172 79 173
f 173 79 77
f 173 77 174
f 174 77 75
f 174 75 175
f 175 75 73
f 175 73 176
f 176 73 71
f 176 71 177
f 177 71 178
f 178 71 69
f 178 69 179
f 179 69 67
f 179 67 180
f 180 67 65
f 180 65 181
f 181 65 64
f 181 64 182
f 182 64 62
f 182 62 183
f 183 62 60
f 183 60 184
f 184 60 59
f 184 59 185
f 185 59 57
f 185 57 186
f 186 57 56
f 186 56 187
f 187 56 55
f 187 55 14
f 14 55 53
f 14 53 188
f 188 53 52
f 188 52 189
f 189 52 51
f 189 51 190
f 190 51 49
f 190 49 191
f 191 49 47
f 191 47 192
f 192 47 46
f 192 46 193
f 193 46 41
f 193 41 194
f 194 41 37
f 194 37 164
f 89 165 91
f 91 165 195
f 91 195 92
f 92 195 196
f 92 196 93
f 93 196 197
f 93 197 95
f 95 197 198
f 95 198 97
f 97 198 199
f 97 199 98
f 98 199 200
f 98 200 38
f 38 200 201
f 201 202 38
f 38 202 24
f 24 202 22
f 22 202 203
f 22 203 204
f 22 204 23
f 23 204 205
f 23 205 25
f 25 205 206
f 25 206 26
f 26 206 207
f 26 207 27
f 27 207 208
f 27 208 28
f 28 208 209
f 28 209 29
f 29 209 210
f 29 210 31
f 31 210 211
f 31 211 32
f 32 211 212
f 32 212 33
f 33 212 213
f 33 213 34
f 34 213 214
f 34 214 35
f 35 214 215
f 35 215 36
f 36 215 30
f 30 215 163
f 177 178 21
f 21 178 179
f 21 179 180
f 180 181 21
f 21 181 182
f 21 182 183
f 183 184 21
f 21 184 185
f 21 185 186
f 186 187 21
f 21 187 14
f 166 167 216
f 216 167 168
f 216 168 169
f 169 170 216
f 216 170 171
f 216 171 172
f 172 173 216
f 216 173 174
f 216 174 175
f 175 176 216
f 216 176 177
f 201 200 202
f 202 200 199
f 202 199 217
f 217 199 198
f 217 198 197
f 197 196 217
f 217 196 195
f 217 195 165
f 165 166 217
f 13 209 217
f 217 209 208
f 217 208 207
f 14 188 13
f 13 188 189
f 13 189 190
f 190 191 13
f 13 191 192
f 13 192 193
f 13 193 163
f 163 193 194
f 163 194 164
f 163 215 13
f 13 215 214
f 13 214 213
f 213 212 13
f 13 212 211
f 13 211 210
f 210 209 13
f 207 206 217
f 217 206 205
f 217 205 204
f 204 203 217
f 217 203 202
f 120 118 218
f 218 118 133
f 218 133 219
f 219 133 134
f 219 134 220
f 220 134 135
f 220 135 221
f 221 135 136
f 221 136 222
f 222 136 138
f 222 138 223
f 223 138 139
f 223 139 224
f 224 139 140
f 224 140 225
f 225 140 141
f 225 141 123
f 123 141 121
f 125 127 155
f 155 127 146
f 155 146 156
f 156 146 147
f 156 147 157
f 157 147 148
f 157 148 158
f 158 148 149
f 158 149 159
f 159 149 150
f 159 150 160
f 160 150 151
f 160 151 161
f 161 151 152
f 161 152 162
f 162 152 153
f 162 153 131
f 131 153 129
f 226 227 10
f 10 227 18
f 227 228 18
f 18 228 20
f 228 229 20
f 20 229 19
f 229 3 19
f 19 3 8
f 128 126 144
f 144 126 154
f 216 177 145
f 145 177 15
f 15 177 21
f 217 137 13
f 13 137 12
f 117 119 11
f 11 119 9
f 119 120 9
f 9 120 10
f 10 120 218
f 10 218 219
f 219 220 10
f 10 220 221
f 10 221 226
f 226 221 222
f 226 222 223
f 223 224 226
f 226 224 225
f 226 225 123
f 124 143 123
f 123 143 226
f 143 142 226
f 226 142 137
f 226 137 217
f 217 166 226
f 226 166 1
f 226 1 3
f 216 145 166
f 166 145 1
f 144 154 145
f 145 154 1
f 3 229 226
f 226 229 227
f 227 229 228
f 105 230 103
f 103 230 231
f 103 231 101
f 101 231 232
f 101 232 113
f 113 232 233
f 113 233 115
f 115 233 234
f 115 234 116
f 116 234 235
f 116 235 114
f 114 235 236
f 114 236 112
f 112 236 237
f 112 237 102
f 102 237 238
f 102 238 104
f 104 238 239
f 104 239 106
f 106 239 240
f 106 240 108
f 108 240 241
f 108 241 110
f 110 241 242
f 110 242 111
f 111 242 243
f 111 243 109
f 109 243 244
f 109 244 107
f 107 244 245
f 107 245 105
f 105 245 230
f 44 246 39
f 39 246 247
f 39 247 40
f 40 247 248
f 40 248 249
f 44 43 246
f 246 43 250
f 250 43 42
f 250 42 251
f 251 42 45
f 251 45 252
f 252 45 48
f 252 48 253
f 253 48 50
f 253 50 254
f 254 50 54
f 254 54 255
f 255 54 58
f 255 58 256
f 256 58 61
f 256 61 257
f 257 61 63
f 257 63 258
f 258 63 66
f 258 66 259
f 259 66 68
f 259 68 260
f 260 68 70
f 260 70 261
f 261 70 72
f 261 72 262
f 262 72 74
f 262 74 263
f 263 74 76
f 263 76 264
f 264 76 78
f 264 78 265
f 265 78 81
f 265 81 266
f 266 81 83
f 266 83 267
f 267 83 86
f 267 86 268
f 268 86 90
f 268 90 269
f 269 90 94
f 269 94 270
f 270 94 96
f 270 96 271
f 271 96 99
f 271 99 272
f 272 99 100
f 272 100 249
f 249 100 40
f 248 247 231
f 231 247 246
f 231 246 232
f 232 246 250
f 232 250 251
f 232 251 233
f 233 251 252
f 233 252 234
f 234 252 253
f 234 253 254
f 234 254 235
f 235 254 255
f 235 255 256
f 235 256 236
f 236 256 257
f 236 257 237
f 237 257 258
f 237 258 259
f 237 259 238
f 238 259 260
f 238 260 261
f 238 261 239
f 239 261 262
f 239 262 240
f 240 262 263
f 240 263 264
f 240 264 241
f 241 264 265
f 241 265 266
f 241 266 242
f 242 266 267
f 242 267 243
f 243 267 268
f 243 268 269
f 243 269 244
f 244 269 270
f 244 270 271
f 244 271 245
f 245 271 272
f 245 272 230
f 230 272 249
f 230 249 248
f 230 248 231
f 5 273 6
f 6 273 274
f 273 275 274
f 274 275 276
f 275 4 276
f 276 4 2
f 4 275 5
f 5 275 273
f 276 2 274
f 274 2 6

